<?xml version="1.0" encoding="UTF-8" standalone="no"?>
<svg
   xmlns:dc="http://purl.org/dc/elements/1.1/"
   xmlns:cc="http://creativecommons.org/ns#"
   xmlns:rdf="http://www.w3.org/1999/02/22-rdf-syntax-ns#"
   xmlns:svg="http://www.w3.org/2000/svg"
   xmlns="http://www.w3.org/2000/svg"
   xmlns:xlink="http://www.w3.org/1999/xlink"
   xmlns:sodipodi="http://sodipodi.sourceforge.net/DTD/sodipodi-0.dtd"
   xmlns:inkscape="http://www.inkscape.org/namespaces/inkscape"
   xml:space="preserve"
   width="501.97363"
   height="336.99414"
   style="fill-rule:evenodd"
   viewBox="0 0 502.14362 336.99414"
   id="svg2"
   sodipodi:version="0.32"
   inkscape:version="1.0 (4035a4fb49, 2020-05-01)"
   sodipodi:docname="Photoelectric effect diagram - English.svg"
   version="1.1"><title
   id="title2090">Maximal kinetic energy and stopping potential in photoelectric effect on zinc</title><metadata
   id="metadata463"><rdf:RDF><cc:Work
       rdf:about=""><dc:format>image/svg+xml</dc:format><dc:type
         rdf:resource="http://purl.org/dc/dcmitype/StillImage" /><dc:title>Maximal kinetic energy and stopping potential in photoelectric effect on zinc</dc:title><dc:date>2020-06-20</dc:date><dc:creator><cc:Agent><dc:title>Ivo Pletikosic</dc:title></cc:Agent></dc:creator><dc:contributor><cc:Agent><dc:title>Based on Klaus-Dieter Keller's diagram https://en.wikipedia.org/wiki/File:Photoelectric_effect_diagram.svg</dc:title></cc:Agent></dc:contributor><dc:description>Maximal kinetic energy of electrons emitted from zinc when light of frequency ν is shone upon its surface, expressed as the voltage needed to stop any further emission.</dc:description><cc:license
         rdf:resource="http://creativecommons.org/licenses/by-sa/4.0/" /><dc:subject><rdf:Bag><rdf:li>photoelectric effect</rdf:li><rdf:li>physics</rdf:li><rdf:li>photon</rdf:li></rdf:Bag></dc:subject><dc:language>English</dc:language></cc:Work><cc:License
       rdf:about="http://creativecommons.org/licenses/by-sa/4.0/"><cc:permits
         rdf:resource="http://creativecommons.org/ns#Reproduction" /><cc:permits
         rdf:resource="http://creativecommons.org/ns#Distribution" /><cc:requires
         rdf:resource="http://creativecommons.org/ns#Notice" /><cc:requires
         rdf:resource="http://creativecommons.org/ns#Attribution" /><cc:permits
         rdf:resource="http://creativecommons.org/ns#DerivativeWorks" /><cc:requires
         rdf:resource="http://creativecommons.org/ns#ShareAlike" /></cc:License></rdf:RDF></metadata><sodipodi:namedview
   inkscape:window-height="836"
   inkscape:window-width="1600"
   inkscape:pageshadow="2"
   inkscape:pageopacity="0.0"
   borderopacity="1.0"
   bordercolor="#666666"
   pagecolor="#ffffff"
   id="base"
   inkscape:zoom="0.99843751"
   inkscape:cx="270.16121"
   inkscape:cy="167.96874"
   inkscape:window-x="0"
   inkscape:window-y="0"
   inkscape:current-layer="layer2"
   showgrid="false"
   inkscape:window-maximized="1"
   fit-margin-top="0"
   fit-margin-left="0"
   fit-margin-right="0"
   fit-margin-bottom="0"
   inkscape:document-rotation="0"
   inkscape:pagecheckerboard="true"
   inkscape:showpageshadow="false" />
 <defs
   id="defs4"><marker
     inkscape:isstock="true"
     style="overflow:visible"
     id="marker1975"
     refX="0"
     refY="0"
     orient="auto"
     inkscape:stockid="Arrow1Mend"><path
       transform="matrix(-0.4,0,0,-0.4,-4,0)"
       style="fill:#000000;fill-opacity:1;fill-rule:evenodd;stroke:#000000;stroke-width:1pt;stroke-opacity:1"
       d="M 0,0 5,-5 -12.5,0 5,5 Z"
       id="path1973" /></marker><style
     type="text/css"
     id="style113">
   
    @font-face { font-family:&quot;Arial&quot;;src:url(&quot;#FontID0&quot;) format(svg)}
    .str2 {stroke:#95989C;stroke-width:0;stroke-linecap:round;stroke-linejoin:round}
    .str1 {stroke:#C0C1C5;stroke-width:0;stroke-linecap:round;stroke-linejoin:round}
    .str12 {stroke:#1F1A17}
    .str6 {stroke:#131516;stroke-width:4;stroke-linecap:round;stroke-linejoin:round}
    .str8 {stroke:#00923F;stroke-width:4}
    .str7 {stroke:#0093DD;stroke-width:4}
    .str0 {stroke:#1F1A17;stroke-width:4}
    .str4 {stroke:#131516;stroke-width:8;stroke-linecap:round;stroke-linejoin:round}
    .str10 {stroke:#00923F;stroke-width:8}
    .str9 {stroke:#0093DD;stroke-width:8}
    .str3 {stroke:#131516;stroke-width:12;stroke-linecap:round;stroke-linejoin:round}
    .str11 {stroke:#1F1A17;stroke-width:17}
    .str5 {stroke:#131516;stroke-width:8;stroke-linecap:round;stroke-linejoin:round;stroke-dasharray:8 24}
    .fil0 {fill:none}
    .fil4 {fill:#00923F}
    .fil5 {fill:#0093DD}
    .fil8 {fill:#1F1A17}
    .fil9 {fill:#3C746B}
    .fil7 {fill:#6D609E}
    .fil6 {fill:#901E78}
    .fil2 {fill:#DA251D}
    .fil10 {fill:#E77817}
    .fil3 {fill:#FFF500}
    .fil1 {fill:#131516}
    .fnt1 {font-weight:normal;font-size:21;font-family:Arial}
    .fnt0 {font-weight:normal;font-size:42;font-family:Arial}
    .fnt4 {font-weight:normal;font-size:58;font-family:Arial}
    .fnt2 {font-weight:normal;font-size:59;font-family:Arial}
    .fnt3 {font-weight:normal;font-size:60;font-family:Arial}
    .fnt7 {font-weight:normal;font-size:73;font-family:Arial}
    .fnt6 {font-weight:normal;font-size:146;font-family:Arial}
    .fnt8 {font-weight:normal;font-size:206;font-family:Arial}
    .fnt5 {font-weight:normal;font-size:58;font-family:Arial;vertical-align:super}
   
  </style><linearGradient
     id="linearGradient3142"><stop
       style="stop-color:#00121F;stop-opacity:1;"
       offset="0"
       id="WL380nm" /><stop
       style="stop-color:#00121F;stop-opacity:1;"
       offset="0.00001892"
       id="WL381nm" /><stop
       style="stop-color:#00121F;stop-opacity:1;"
       offset="0.0120481927710843"
       id="WL383nm" /><stop
       style="stop-color:#00121F;stop-opacity:1;"
       offset="0.0180722891566265"
       id="WL385nm" /><stop
       style="stop-color:#00121F;stop-opacity:1;"
       offset="0.0240963855421687"
       id="WL387nm" /><stop
       style="stop-color:#001930;stop-opacity:1;"
       offset="0.0301204819277108"
       id="WL389nm" /><stop
       style="stop-color:#001930;stop-opacity:1;"
       offset="0.036144578313253"
       id="WL391nm" /><stop
       style="stop-color:#240036;stop-opacity:1;"
       offset="0.0421686746987952"
       id="WL393nm" /><stop
       style="stop-color:#24003E;stop-opacity:1;"
       offset="0.0481927710843374"
       id="WL395nm" /><stop
       style="stop-color:#1F0043;stop-opacity:1;"
       offset="0.0542168674698795"
       id="WL397nm" /><stop
       style="stop-color:#190048;stop-opacity:1;"
       offset="0.0602409638554217"
       id="WL399nm" /><stop
       style="stop-color:#330052;stop-opacity:1;"
       offset="0.0662650602409639"
       id="WL401nm" /><stop
       style="stop-color:#2C0059;stop-opacity:1;"
       offset="0.072289156626506"
       id="WL403nm" /><stop
       style="stop-color:#240061;stop-opacity:1;"
       offset="0.0783132530120482"
       id="WL405nm" /><stop
       style="stop-color:#1F006A;stop-opacity:1;"
       offset="0.0843373493975904"
       id="WL407nm" /><stop
       style="stop-color:#2C0078;stop-opacity:1;"
       offset="0.0903614457831325"
       id="WL409nm" /><stop
       style="stop-color:#360087;stop-opacity:1;"
       offset="0.0963855421686747"
       id="WL411nm" /><stop
       style="stop-color:#390096;stop-opacity:1;"
       offset="0.102409638554217"
       id="WL413nm" /><stop
       style="stop-color:#4C00A8;stop-opacity:1;"
       offset="0.108433734939759"
       id="WL415nm" /><stop
       style="stop-color:#5500BC;stop-opacity:1;"
       offset="0.114457831325301"
       id="WL417nm" /><stop
       style="stop-color:#5200CD;stop-opacity:1;"
       offset="0.120481927710843"
       id="WL419nm" /><stop
       style="stop-color:#6100E2;stop-opacity:1;"
       offset="0.126506024096386"
       id="WL421nm" /><stop
       style="stop-color:#6B00F8;stop-opacity:1;"
       offset="0.132530120481928"
       id="WL423nm" /><stop
       style="stop-color:#6E00FF;stop-opacity:1;"
       offset="0.13855421686747"
       id="WL425nm" /><stop
       style="stop-color:#7000FF;stop-opacity:1;"
       offset="0.144578313253012"
       id="WL427nm" /><stop
       style="stop-color:#6E00FF;stop-opacity:1;"
       offset="0.150602409638554"
       id="WL429nm" /><stop
       style="stop-color:#6C00FF;stop-opacity:1;"
       offset="0.156626506024096"
       id="WL431nm" /><stop
       style="stop-color:#6E00FF;stop-opacity:1;"
       offset="0.162650602409639"
       id="WL433nm" /><stop
       style="stop-color:#7000FF;stop-opacity:1;"
       offset="0.168674698795181"
       id="WL435nm" /><stop
       style="stop-color:#6F00FF;stop-opacity:1;"
       offset="0.174698795180723"
       id="WL437nm" /><stop
       style="stop-color:#6C00FF;stop-opacity:1;"
       offset="0.180722891566265"
       id="WL439nm" /><stop
       style="stop-color:#6A00FF;stop-opacity:1;"
       offset="0.186746987951807"
       id="WL441nm" /><stop
       style="stop-color:#6700FF;stop-opacity:1;"
       offset="0.192771084337349"
       id="WL443nm" /><stop
       style="stop-color:#6700FF;stop-opacity:1;"
       offset="0.198795180722892"
       id="WL445nm" /><stop
       style="stop-color:#6100FF;stop-opacity:1;"
       offset="0.204819277108434"
       id="WL447nm" /><stop
       style="stop-color:#5C00FF;stop-opacity:1;"
       offset="0.210843373493976"
       id="WL449nm" /><stop
       style="stop-color:#5700FF;stop-opacity:1;"
       offset="0.216867469879518"
       id="WL451nm" /><stop
       style="stop-color:#5900FF;stop-opacity:1;"
       offset="0.22289156626506"
       id="WL453nm" /><stop
       style="stop-color:#5400FF;stop-opacity:1;"
       offset="0.228915662650602"
       id="WL455nm" /><stop
       style="stop-color:#4E00FF;stop-opacity:1;"
       offset="0.234939759036145"
       id="WL457nm" /><stop
       style="stop-color:#4300FF;stop-opacity:1;"
       offset="0.240963855421687"
       id="WL459nm" /><stop
       style="stop-color:#3300FF;stop-opacity:1;"
       offset="0.246987951807229"
       id="WL461nm" /><stop
       style="stop-color:#1F00FF;stop-opacity:1;"
       offset="0.253012048192771"
       id="WL463nm" /><stop
       style="stop-color:#0019FF;stop-opacity:1;"
       offset="0.259036144578313"
       id="WL465nm" /><stop
       style="stop-color:#003CFF;stop-opacity:1;"
       offset="0.265060240963855"
       id="WL467nm" /><stop
       style="stop-color:#0050FF;stop-opacity:1;"
       offset="0.271084337349398"
       id="WL469nm" /><stop
       style="stop-color:#0061FF;stop-opacity:1;"
       offset="0.27710843373494"
       id="WL471nm" /><stop
       style="stop-color:#0070FF;stop-opacity:1;"
       offset="0.283132530120482"
       id="WL473nm" /><stop
       style="stop-color:#007FFF;stop-opacity:1;"
       offset="0.289156626506024"
       id="WL475nm" /><stop
       style="stop-color:#008DFF;stop-opacity:1;"
       offset="0.295180722891566"
       id="WL477nm" /><stop
       style="stop-color:#009DFF;stop-opacity:1;"
       offset="0.301204819277108"
       id="WL479nm" /><stop
       style="stop-color:#00A3FA;stop-opacity:1;"
       offset="0.307228915662651"
       id="WL481nm" /><stop
       style="stop-color:#00B1F5;stop-opacity:1;"
       offset="0.313253012048193"
       id="WL483nm" /><stop
       style="stop-color:#00B6ED;stop-opacity:1;"
       offset="0.319277108433735"
       id="WL485nm" /><stop
       style="stop-color:#00BBE6;stop-opacity:1;"
       offset="0.325301204819277"
       id="WL487nm" /><stop
       style="stop-color:#00C4E1;stop-opacity:1;"
       offset="0.331325301204819"
       id="WL489nm" /><stop
       style="stop-color:#00CDDD;stop-opacity:1;"
       offset="0.337349397590361"
       id="WL491nm" /><stop
       style="stop-color:#00D6DA;stop-opacity:1;"
       offset="0.343373493975904"
       id="WL493nm" /><stop
       style="stop-color:#00DFD8;stop-opacity:1;"
       offset="0.349397590361446"
       id="WL495nm" /><stop
       style="stop-color:#00E3D5;stop-opacity:1;"
       offset="0.355421686746988"
       id="WL497nm" /><stop
       style="stop-color:#00EBD4;stop-opacity:1;"
       offset="0.36144578313253"
       id="WL499nm" /><stop
       style="stop-color:#00F6D5;stop-opacity:1;"
       offset="0.367469879518072"
       id="WL501nm" /><stop
       style="stop-color:#00FDD4;stop-opacity:1;"
       offset="0.373493975903614"
       id="WL503nm" /><stop
       style="stop-color:#00FFCF;stop-opacity:1;"
       offset="0.379518072289157"
       id="WL505nm" /><stop
       style="stop-color:#00FFCA;stop-opacity:1;"
       offset="0.385542168674699"
       id="WL507nm" /><stop
       style="stop-color:#00FFC4;stop-opacity:1;"
       offset="0.391566265060241"
       id="WL509nm" /><stop
       style="stop-color:#00FFBF;stop-opacity:1;"
       offset="0.397590361445783"
       id="WL511nm" /><stop
       style="stop-color:#00FFBA;stop-opacity:1;"
       offset="0.403614457831325"
       id="WL513nm" /><stop
       style="stop-color:#00FFB5;stop-opacity:1;"
       offset="0.409638554216867"
       id="WL515nm" /><stop
       style="stop-color:#00FFB2;stop-opacity:1;"
       offset="0.41566265060241"
       id="WL517nm" /><stop
       style="stop-color:#00FFAD;stop-opacity:1;"
       offset="0.421686746987952"
       id="WL519nm" /><stop
       style="stop-color:#00FFAA;stop-opacity:1;"
       offset="0.427710843373494"
       id="WL521nm" /><stop
       style="stop-color:#00FFA6;stop-opacity:1;"
       offset="0.433734939759036"
       id="WL523nm" /><stop
       style="stop-color:#00FFA4;stop-opacity:1;"
       offset="0.439759036144578"
       id="WL525nm" /><stop
       style="stop-color:#00FFA0;stop-opacity:1;"
       offset="0.44578313253012"
       id="WL527nm" /><stop
       style="stop-color:#00FF9C;stop-opacity:1;"
       offset="0.451807228915663"
       id="WL529nm" /><stop
       style="stop-color:#00FF97;stop-opacity:1;"
       offset="0.457831325301205"
       id="WL531nm" /><stop
       style="stop-color:#00FF94;stop-opacity:1;"
       offset="0.463855421686747"
       id="WL533nm" /><stop
       style="stop-color:#00FF8E;stop-opacity:1;"
       offset="0.469879518072289"
       id="WL535nm" /><stop
       style="stop-color:#00FF8B;stop-opacity:1;"
       offset="0.475903614457831"
       id="WL537nm" /><stop
       style="stop-color:#00FF82;stop-opacity:1;"
       offset="0.481927710843373"
       id="WL539nm" /><stop
       style="stop-color:#00FF7E;stop-opacity:1;"
       offset="0.487951807228916"
       id="WL541nm" /><stop
       style="stop-color:#00FF76;stop-opacity:1;"
       offset="0.493975903614458"
       id="WL543nm" /><stop
       style="stop-color:#00FF6A;stop-opacity:1;"
       offset="0.5"
       id="WL545nm" /><stop
       style="stop-color:#00FF5C;stop-opacity:1;"
       offset="0.506024096385542"
       id="WL547nm" /><stop
       style="stop-color:#00FF46;stop-opacity:1;"
       offset="0.512048192771084"
       id="WL549nm" /><stop
       style="stop-color:#00FF24;stop-opacity:1;"
       offset="0.518072289156627"
       id="WL551nm" /><stop
       style="stop-color:#39FF00;stop-opacity:1;"
       offset="0.524096385542169"
       id="WL553nm" /><stop
       style="stop-color:#59FF00;stop-opacity:1;"
       offset="0.530120481927711"
       id="WL555nm" /><stop
       style="stop-color:#73FF00;stop-opacity:1;"
       offset="0.536144578313253"
       id="WL557nm" /><stop
       style="stop-color:#8AFF00;stop-opacity:1;"
       offset="0.542168674698795"
       id="WL559nm" /><stop
       style="stop-color:#9DFF00;stop-opacity:1;"
       offset="0.548192771084337"
       id="WL561nm" /><stop
       style="stop-color:#ABFF00;stop-opacity:1;"
       offset="0.55421686746988"
       id="WL563nm" /><stop
       style="stop-color:#BBFA00;stop-opacity:1;"
       offset="0.560240963855422"
       id="WL565nm" /><stop
       style="stop-color:#C7F600;stop-opacity:1;"
       offset="0.566265060240964"
       id="WL567nm" /><stop
       style="stop-color:#D5F100;stop-opacity:1;"
       offset="0.572289156626506"
       id="WL569nm" /><stop
       style="stop-color:#DFEC00;stop-opacity:1;"
       offset="0.578313253012048"
       id="WL571nm" /><stop
       style="stop-color:#EAE600;stop-opacity:1;"
       offset="0.58433734939759"
       id="WL573nm" /><stop
       style="stop-color:#F3E100;stop-opacity:1;"
       offset="0.590361445783133"
       id="WL575nm" /><stop
       style="stop-color:#FDDA00;stop-opacity:1;"
       offset="0.596385542168675"
       id="WL577nm" /><stop
       style="stop-color:#FFCE00;stop-opacity:1;"
       offset="0.602409638554217"
       id="WL579nm" /><stop
       style="stop-color:#FFC000;stop-opacity:1;"
       offset="0.608433734939759"
       id="WL581nm" /><stop
       style="stop-color:#FFB300;stop-opacity:1;"
       offset="0.614457831325301"
       id="WL583nm" /><stop
       style="stop-color:#FFA800;stop-opacity:1;"
       offset="0.620481927710843"
       id="WL585nm" /><stop
       style="stop-color:#FF9C00;stop-opacity:1;"
       offset="0.626506024096386"
       id="WL587nm" /><stop
       style="stop-color:#FF9100;stop-opacity:1;"
       offset="0.632530120481928"
       id="WL589nm" /><stop
       style="stop-color:#FF8700;stop-opacity:1;"
       offset="0.63855421686747"
       id="WL591nm" /><stop
       style="stop-color:#FF7C00;stop-opacity:1;"
       offset="0.644578313253012"
       id="WL593nm" /><stop
       style="stop-color:#FF7000;stop-opacity:1;"
       offset="0.650602409638554"
       id="WL595nm" /><stop
       style="stop-color:#FF6A00;stop-opacity:1;"
       offset="0.656626506024096"
       id="WL597nm" /><stop
       style="stop-color:#FF5E00;stop-opacity:1;"
       offset="0.662650602409639"
       id="WL599nm" /><stop
       style="stop-color:#FF5500;stop-opacity:1;"
       offset="0.668674698795181"
       id="WL601nm" /><stop
       style="stop-color:#FF4800;stop-opacity:1;"
       offset="0.674698795180723"
       id="WL603nm" /><stop
       style="stop-color:#FF4100;stop-opacity:1;"
       offset="0.680722891566265"
       id="WL605nm" /><stop
       style="stop-color:#FF3300;stop-opacity:1;"
       offset="0.686746987951807"
       id="WL607nm" /><stop
       style="stop-color:#FF2C00;stop-opacity:1;"
       offset="0.692771084337349"
       id="WL609nm" /><stop
       style="stop-color:#FF1200;stop-opacity:1;"
       offset="0.698795180722892"
       id="WL611nm" /><stop
       style="stop-color:#FF0012;stop-opacity:1;"
       offset="0.704819277108434"
       id="WL613nm" /><stop
       style="stop-color:#FF0028;stop-opacity:1;"
       offset="0.710843373493976"
       id="WL615nm" /><stop
       style="stop-color:#FF002C;stop-opacity:1;"
       offset="0.716867469879518"
       id="WL617nm" /><stop
       style="stop-color:#FF0036;stop-opacity:1;"
       offset="0.72289156626506"
       id="WL619nm" /><stop
       style="stop-color:#FF003C;stop-opacity:1;"
       offset="0.728915662650602"
       id="WL621nm" /><stop
       style="stop-color:#FF0041;stop-opacity:1;"
       offset="0.734939759036145"
       id="WL623nm" /><stop
       style="stop-color:#FF0041;stop-opacity:1;"
       offset="0.740963855421687"
       id="WL625nm" /><stop
       style="stop-color:#FF0043;stop-opacity:1;"
       offset="0.746987951807229"
       id="WL627nm" /><stop
       style="stop-color:#FF0043;stop-opacity:1;"
       offset="0.753012048192771"
       id="WL629nm" /><stop
       style="stop-color:#FF004C;stop-opacity:1;"
       offset="0.759036144578313"
       id="WL631nm" /><stop
       style="stop-color:#FF0048;stop-opacity:1;"
       offset="0.765060240963855"
       id="WL633nm" /><stop
       style="stop-color:#FF004A;stop-opacity:1;"
       offset="0.771084337349398"
       id="WL635nm" /><stop
       style="stop-color:#F7004A;stop-opacity:1;"
       offset="0.77710843373494"
       id="WL637nm" /><stop
       style="stop-color:#F3004E;stop-opacity:1;"
       offset="0.783132530120482"
       id="WL639nm" /><stop
       style="stop-color:#E80046;stop-opacity:1;"
       offset="0.789156626506024"
       id="WL641nm" /><stop
       style="stop-color:#E00046;stop-opacity:1;"
       offset="0.795180722891566"
       id="WL643nm" /><stop
       style="stop-color:#D70043;stop-opacity:1;"
       offset="0.801204819277108"
       id="WL645nm" /><stop
       style="stop-color:#CF003E;stop-opacity:1;"
       offset="0.807228915662651"
       id="WL647nm" /><stop
       style="stop-color:#C90043;stop-opacity:1;"
       offset="0.813253012048193"
       id="WL649nm" /><stop
       style="stop-color:#BF003E;stop-opacity:1;"
       offset="0.819277108433735"
       id="WL651nm" /><stop
       style="stop-color:#B50039;stop-opacity:1;"
       offset="0.825301204819277"
       id="WL653nm" /><stop
       style="stop-color:#AF0039;stop-opacity:1;"
       offset="0.831325301204819"
       id="WL655nm" /><stop
       style="stop-color:#A9003C;stop-opacity:1;"
       offset="0.837349397590361"
       id="WL657nm" /><stop
       style="stop-color:#9D0036;stop-opacity:1;"
       offset="0.843373493975904"
       id="WL659nm" /><stop
       style="stop-color:#970030;stop-opacity:1;"
       offset="0.849397590361446"
       id="WL661nm" /><stop
       style="stop-color:#8F0030;stop-opacity:1;"
       offset="0.855421686746988"
       id="WL663nm" /><stop
       style="stop-color:#880030;stop-opacity:1;"
       offset="0.86144578313253"
       id="WL665nm" /><stop
       style="stop-color:#800028;stop-opacity:1;"
       offset="0.867469879518072"
       id="WL667nm" /><stop
       style="stop-color:#760028;stop-opacity:1;"
       offset="0.873493975903614"
       id="WL669nm" /><stop
       style="stop-color:#6E001F;stop-opacity:1;"
       offset="0.879518072289157"
       id="WL671nm" /><stop
       style="stop-color:#640019;stop-opacity:1;"
       offset="0.885542168674699"
       id="WL673nm" /><stop
       style="stop-color:#620024;stop-opacity:1;"
       offset="0.891566265060241"
       id="WL675nm" /><stop
       style="stop-color:#620024;stop-opacity:1;"
       offset="0.897590361445783"
       id="WL677nm" /><stop
       style="stop-color:#570019;stop-opacity:1;"
       offset="0.903614457831325"
       id="WL679nm" /><stop
       style="stop-color:#4A0000;stop-opacity:1;"
       offset="0.909638554216867"
       id="WL681nm" /><stop
       style="stop-color:#550024;stop-opacity:1;"
       offset="0.91566265060241"
       id="WL683nm" /><stop
       style="stop-color:#460019;stop-opacity:1;"
       offset="0.921686746987952"
       id="WL685nm" /><stop
       style="stop-color:#460019;stop-opacity:1;"
       offset="0.927710843373494"
       id="WL687nm" /><stop
       style="stop-color:#330000;stop-opacity:1;"
       offset="0.933734939759036"
       id="WL689nm" /><stop
       style="stop-color:#330000;stop-opacity:1;"
       offset="0.939759036144578"
       id="WL691nm" /><stop
       style="stop-color:#330000;stop-opacity:1;"
       offset="0.94578313253012"
       id="WL693nm" /><stop
       style="stop-color:#330000;stop-opacity:1;"
       offset="0.951807228915663"
       id="WL695nm" /><stop
       style="stop-color:#300019;stop-opacity:1;"
       offset="0.957831325301205"
       id="WL697nm" /><stop
       style="stop-color:#300019;stop-opacity:1;"
       offset="0.963855421686747"
       id="WL699nm" /><stop
       style="stop-color:#300019;stop-opacity:1;"
       offset="0.969879518072289"
       id="WL701nm" /><stop
       style="stop-color:#300019;stop-opacity:1;"
       offset="0.975903614457831"
       id="WL703nm" /><stop
       style="stop-color:#300019;stop-opacity:1;"
       offset="0.981927710843373"
       id="WL705nm" /><stop
       style="stop-color:#300019;stop-opacity:1;"
       offset="0.987951807228916"
       id="WL707nm" /><stop
       style="stop-color:#300019;stop-opacity:1;"
       offset="0.993975903614458"
       id="WL709nm" /><stop
       style="stop-color:#300019;stop-opacity:1;"
       offset="1.0"
       id="WL710nm" /></linearGradient><linearGradient
     inkscape:collect="always"
     xlink:href="#linearGradient3142"
     id="linearGradient5479"
     gradientUnits="userSpaceOnUse"
     gradientTransform="matrix(0.5133333,0,0,0.619469,352.13333,-151.02082)"
     x1="54.285713"
     y1="405.21933"
     x2="817.75275"
     y2="403.5271" /><marker
     inkscape:collect="always"
     inkscape:isstock="true"
     style="overflow:visible"
     id="Arrow1Mend"
     refX="0"
     refY="0"
     orient="auto"
     inkscape:stockid="Arrow1Mend"><path
       transform="matrix(-0.4,0,0,-0.4,-4,0)"
       style="fill:#000000;fill-opacity:1;fill-rule:evenodd;stroke:#000000;stroke-width:1pt;stroke-opacity:1"
       d="M 0,0 5,-5 -12.5,0 5,5 Z"
       id="path1706" /></marker><marker
     inkscape:stockid="Arrow1Mend"
     orient="auto"
     refY="0"
     refX="0"
     id="marker1975-0"
     style="overflow:visible"
     inkscape:isstock="true"><path
       id="path1973-4"
       d="M 0,0 5,-5 -12.5,0 5,5 Z"
       style="fill:#000000;fill-opacity:1;fill-rule:evenodd;stroke:#000000;stroke-width:1pt;stroke-opacity:1"
       transform="matrix(-0.4,0,0,-0.4,-4,0)" /></marker></defs>
 


























































<g
   style="display:inline"
   inkscape:label="base"
   id="layer2"
   inkscape:groupmode="layer"><path
     sodipodi:nodetypes="cc"
     inkscape:connector-curvature="0"
     id="path4022"
     d="M 52.332899,303.8474 329.56054,118.57836"
     style="fill:none;fill-rule:evenodd;stroke:#000000;stroke-width:2.20076;stroke-linecap:butt;stroke-linejoin:miter;stroke-miterlimit:4;stroke-dasharray:6.60223, 6.60223;stroke-dashoffset:0;stroke-opacity:1" /><path
     inkscape:connector-curvature="0"
     class="fil0 str3"
     d="m 47.744997,245.4616 h 2.507541"
     id="path294"
     style="fill:none;fill-rule:evenodd;stroke:#131516;stroke-width:2.00068;stroke-linecap:square;stroke-linejoin:round;stroke-miterlimit:4;stroke-dasharray:none" /><path
     inkscape:connector-curvature="0"
     class="fil0 str3"
     d="m 47.744997,202.93773 h 2.507541"
     id="path296"
     style="fill:none;fill-rule:evenodd;stroke:#131516;stroke-width:2.00068;stroke-linecap:square;stroke-linejoin:round;stroke-miterlimit:4;stroke-dasharray:none" /><path
     inkscape:connector-curvature="0"
     class="fil0 str3"
     d="m 47.744997,160.61166 h 2.507541"
     id="path298"
     style="fill:none;fill-rule:evenodd;stroke:#131516;stroke-width:2.00068;stroke-linecap:square;stroke-linejoin:round;stroke-miterlimit:4;stroke-dasharray:none" /><path
     inkscape:connector-curvature="0"
     class="fil0 str3"
     d="m 47.744997,118.08781 h 2.507541"
     id="path300"
     style="fill:none;fill-rule:evenodd;stroke:#131516;stroke-width:2.00068;stroke-linecap:square;stroke-linejoin:round;stroke-miterlimit:4;stroke-dasharray:none" /><path
     inkscape:connector-curvature="0"
     class="fil0 str3"
     d="m 47.744997,75.563935 h 2.507541"
     id="path302"
     style="fill:none;fill-rule:evenodd;stroke:#131516;stroke-width:2.00068;stroke-linecap:square;stroke-linejoin:round;stroke-miterlimit:4;stroke-dasharray:none" /><path
     inkscape:connector-curvature="0"
     class="fil0 str3"
     d="m 47.744997,33.237855 h 2.507541"
     id="path304"
     style="fill:none;fill-rule:evenodd;stroke:#131516;stroke-width:2.00068;stroke-linecap:square;stroke-linejoin:round;stroke-miterlimit:4;stroke-dasharray:none" /><path
     inkscape:connector-curvature="0"
     class="fil0 str3"
     d="m 106.5598,122.26717 v -4.53149"
     id="path318"
     style="fill:none;fill-rule:evenodd;stroke:#131516;stroke-width:2.00068;stroke-linecap:square;stroke-linejoin:round;stroke-miterlimit:4;stroke-dasharray:none" /><path
     inkscape:connector-curvature="0"
     class="fil0 str3"
     d="m 159.01567,122.26717 v -4.53149"
     id="path320"
     style="fill:none;fill-rule:evenodd;stroke:#131516;stroke-width:2.00068;stroke-linecap:square;stroke-linejoin:round;stroke-miterlimit:4;stroke-dasharray:none" /><path
     inkscape:connector-curvature="0"
     class="fil0 str3"
     d="m 211.47154,122.26717 v -4.53149"
     id="path322"
     style="fill:none;fill-rule:evenodd;stroke:#131516;stroke-width:2.00068;stroke-linecap:square;stroke-linejoin:round;stroke-miterlimit:4;stroke-dasharray:none" /><path
     inkscape:connector-curvature="0"
     class="fil0 str3"
     d="m 264.0773,122.26717 v -4.53149"
     id="path324"
     style="fill:none;fill-rule:evenodd;stroke:#131516;stroke-width:2.00068;stroke-linecap:square;stroke-linejoin:round;stroke-miterlimit:4;stroke-dasharray:none" /><path
     inkscape:connector-curvature="0"
     class="fil0 str3"
     d="m 316.53318,122.26717 v -4.53149"
     id="path326"
     style="fill:none;fill-rule:evenodd;stroke:#131516;stroke-width:2.00068;stroke-linecap:square;stroke-linejoin:round;stroke-miterlimit:4;stroke-dasharray:none" /><path
     inkscape:connector-curvature="0"
     class="fil0 str3"
     d="m 368.98906,122.26717 v -4.53149"
     id="path328"
     style="fill:none;fill-rule:evenodd;stroke:#131516;stroke-width:2.00068;stroke-linecap:square;stroke-linejoin:round;stroke-miterlimit:4;stroke-dasharray:none" /><path
     class="fil0 str3"
     d="m 47.988665,288.78811 h 2.507542"
     id="path294-0"
     style="fill:none;fill-rule:evenodd;stroke:#131516;stroke-width:2.00068;stroke-linecap:square;stroke-linejoin:round;stroke-miterlimit:4;stroke-dasharray:none"
     inkscape:connector-curvature="0" /><path
     class="fil0 str3"
     d="m 48.373065,329.98088 h 2.507546"
     id="path294-0-8"
     style="fill:none;fill-rule:evenodd;stroke:#131516;stroke-width:2.00068;stroke-linecap:square;stroke-linejoin:round;stroke-miterlimit:4;stroke-dasharray:none"
     inkscape:connector-curvature="0" /><path
     sodipodi:nodetypes="cc"
     id="path1326"
     d="M 51.739037,337.04884 V 3.8832912"
     style="fill:none;fill-rule:evenodd;stroke:#000000;stroke-width:2.00068;stroke-linecap:butt;stroke-linejoin:miter;stroke-miterlimit:4;stroke-dasharray:none;stroke-opacity:1;marker-end:url(#marker1975-0)" /><path
     sodipodi:nodetypes="cc"
     id="path1328"
     d="M 51.234448,117.64444 H 497.67319"
     style="fill:none;fill-rule:evenodd;stroke:#000000;stroke-width:2.26848;stroke-linecap:butt;stroke-linejoin:miter;stroke-miterlimit:4;stroke-dasharray:none;stroke-opacity:1;marker-end:url(#Arrow1Mend)" /><g
     id="g5286"
     transform="matrix(-0.35084187,0,0,-0.24991595,403.97415,107.2915)"
     style="fill-rule:evenodd;stroke-width:1.74765"><path
       id="rect2160"
       style="fill:url(#linearGradient5479);fill-opacity:1;stroke:none;stroke-width:1.74765"
       d="m 380,0 c 110,0 220,0 330,0 0,66.666667 0,133.33333 0,200 -110,0 -220,0 -330,0 0,-66.66667 0,-133.333333 0,-200 z" /><rect
       y="-5"
       x="375"
       height="210"
       width="25"
       id="rect4313"
       style="fill:#ffffff;fill-opacity:1;stroke:none;stroke-width:1.74765" /><rect
       y="-5"
       x="700"
       height="210"
       width="15"
       id="rect5284"
       style="fill:#ffffff;fill-opacity:1;stroke:none;stroke-width:1.74765" /></g><path
     style="fill:none;fill-rule:evenodd;stroke:#000000;stroke-width:0.800271;stroke-linecap:butt;stroke-linejoin:miter;stroke-miterlimit:4;stroke-dasharray:none;stroke-opacity:1"
     d="M 349.49403,167.6115 334.9045,152.49968 v -32.21792"
     id="path2032-4" /><path
     sodipodi:nodetypes="ccc"
     inkscape:connector-curvature="0"
     id="path4020"
     d="M 52.865137,115.51367 H 335.70759 l 132.6344,-86.764681"
     style="fill:none;fill-rule:evenodd;stroke:#d40000;stroke-width:4.53697;stroke-linecap:butt;stroke-linejoin:miter;stroke-miterlimit:4;stroke-dasharray:none;stroke-dashoffset:0;stroke-opacity:1" /><ellipse
     ry="3.8012881"
     rx="3.8012884"
     cy="102.87231"
     cx="353.95395"
     id="path3894-3"
     style="fill:#ffffff;fill-opacity:1;fill-rule:evenodd;stroke:#d40000;stroke-width:2.40081;stroke-miterlimit:4;stroke-dasharray:none" /><ellipse
     ry="3.8012881"
     rx="3.8012884"
     cy="90.469215"
     cx="372.52661"
     id="path3894-2"
     style="fill:#ffffff;fill-opacity:1;fill-rule:evenodd;stroke:#d40000;stroke-width:2.40081;stroke-miterlimit:4;stroke-dasharray:none" /><ellipse
     ry="3.8012881"
     rx="3.8012884"
     cy="70.480591"
     cx="403.31808"
     id="path3894-26"
     style="fill:#ffffff;fill-opacity:1;fill-rule:evenodd;stroke:#d40000;stroke-width:2.40081;stroke-miterlimit:4;stroke-dasharray:none" /><ellipse
     ry="3.8012881"
     rx="3.8012884"
     cy="45.494579"
     cx="441.92972"
     id="path3894-1"
     style="fill:#ffffff;fill-opacity:1;fill-rule:evenodd;stroke:#d40000;stroke-width:2.40081;stroke-miterlimit:4;stroke-dasharray:none" /><path
     id="path2032"
     d="m 54.383677,305.89819 15.111806,14.58953 h 32.217947"
     style="fill:none;fill-rule:evenodd;stroke:#000000;stroke-width:0.800271;stroke-linecap:butt;stroke-linejoin:miter;stroke-miterlimit:4;stroke-dasharray:none;stroke-opacity:1" /></g><g
   inkscape:groupmode="layer"
   id="layer1"
   inkscape:label="annotations"
   style="display:inline"
   transform="translate(25.538943,-18.407372)"><g
     style="font-style:normal;font-weight:normal;font-size:21.3406px;line-height:1.25;font-family:'EB Garamond';-inkscape-font-specification:'EB Garamond, Normal';text-align:end;text-decoration:none;text-decoration-line:none;text-decoration-color:#000000;letter-spacing:0px;word-spacing:0px;text-anchor:end;fill:#333333;fill-opacity:1;fill-rule:evenodd;stroke:none;stroke-width:1.00034;stop-color:#000000"
     id="text1160"
     aria-label="10.4"><path
       id="path1807"
       style="font-size:21.3406px;stroke-width:1.00034"
       d="m 331.51836,185.0173 c 0,-0.53352 0.19206,-0.87497 0.76826,-1.04569 0.57619,-0.17073 0.83228,-0.34145 0.83228,-0.55486 0,-0.2134 -0.19206,-0.42681 -0.74692,-0.42681 -0.46949,0 -1.32312,0.12804 -1.74993,0.12804 -0.34145,0 -1.30177,-0.12804 -1.77127,-0.12804 -0.55485,0 -0.72558,0.21341 -0.72558,0.42681 0,0.21341 0.23475,0.38413 0.81094,0.55486 0.5762,0.17072 0.81095,0.51217 0.81095,1.04569 v 5.03638 c 0,0.53351 -0.23475,0.85362 -0.81095,1.02435 -0.57619,0.17072 -0.93898,0.34145 -0.93898,0.55485 0,0.21341 0.19206,0.42681 0.74692,0.42681 0.46949,0 1.4725,-0.12804 1.89931,-0.12804 0.34145,0 1.40848,0.12804 1.87798,0.12804 0.55485,0 0.72558,-0.2134 0.72558,-0.42681 0,-0.2134 -0.34145,-0.38413 -0.91765,-0.55485 -0.5762,-0.17073 -0.81094,-0.49084 -0.81094,-1.02435 z" /><path
       id="path1809"
       style="font-size:21.3406px;stroke-width:1.00034"
       d="m 335.76512,187.49281 c 0,-1.64323 1.40848,-3.47852 3.0517,-3.47852 1.66457,0 3.45718,1.4725 3.45718,3.13707 0,1.77127 -1.4725,3.54254 -3.24377,3.54254 -1.68591,0 -3.26511,-1.51519 -3.26511,-3.20109 z m 3.1584,-4.65225 c -2.32612,0 -4.48152,2.21942 -4.48152,4.54554 0,2.47551 2.02736,4.71628 4.48152,4.71628 2.64624,0 4.7803,-2.45417 4.7803,-5.10041 0,-2.32612 -2.45417,-4.16141 -4.7803,-4.16141 z" /><path
       id="path1811"
       style="font-size:21.3406px;stroke-width:1.00034"
       d="m 346.88353,189.5415 c -0.76826,0 -1.53652,0.4695 -1.53652,1.23776 0,0.7896 0.55485,1.32312 1.34446,1.32312 0.70424,0 1.30177,-0.70424 1.30177,-1.40848 0,-0.55486 -0.51217,-1.1524 -1.10971,-1.1524 z" /><path
       id="path1813"
       style="font-size:21.3406px;stroke-width:1.00034"
       d="m 351.59979,189.79759 2.88098,-3.96935 c 0.19207,-0.25609 0.19207,-0.14938 0.19207,0.0854 v 3.96935 c 0,0.23475 -0.0427,0.27743 -0.27743,0.27743 h -2.53953 c -0.40547,0 -0.44815,-0.0854 -0.25609,-0.36279 z m 4.37482,-6.99972 c -0.19206,0 -0.51217,0.0854 -0.72558,0.40548 l -4.80163,6.6796 c -0.34145,0.4695 -0.70424,0.81095 -0.70424,1.10971 0,0.25609 0.1067,0.51218 0.32011,0.51218 h 4.3108 c 0.25609,0 0.29877,0.064 0.29877,0.32011 v 3.15841 c 0,0.32011 0.1067,0.64021 0.57619,0.64021 0.59754,0 1.19508,-0.42681 1.19508,-1.02434 v -2.79562 c 0,-0.27743 0.0854,-0.32011 0.38413,-0.32011 h 1.42982 c 0.6829,0 1.08837,-0.44815 1.08837,-0.91765 0,-0.27742 -0.1067,-0.40547 -0.34145,-0.40547 h -2.11272 c -0.40547,0 -0.44815,-0.0854 -0.44815,-0.29877 v -6.44486 c 0,-0.44815 -0.10671,-0.61888 -0.4695,-0.61888 z" /></g><g
     style="font-size:26.6757px;line-height:1.25;font-family:'EB Garamond';-inkscape-font-specification:'EB Garamond, Normal';text-align:end;text-decoration:none;text-decoration-line:none;text-decoration-color:#000000;letter-spacing:0px;word-spacing:0px;text-anchor:end;fill:#333333;fill-rule:evenodd;stroke-width:1.00034;stop-color:#000000"
     id="text1182"
     aria-label="υ / 1014 Hz"><path
       id="path1790"
       style="font-size:26.6757px;stroke-width:1.00034"
       d="m 375.25937,151.77013 c 0,1.38713 -1.01367,3.30778 -1.01367,4.00135 0,1.62722 1.25376,3.20109 3.09438,3.20109 2.64089,0 5.09506,-3.28112 5.09506,-6.42885 0,-1.94732 -1.12038,-5.25511 -2.37414,-5.25511 -0.1067,0 -0.21341,0.08 -0.21341,0.2134 0,0.18673 1.12038,1.94733 1.12038,4.45485 0,2.50751 -1.8673,4.98835 -3.73459,4.98835 -1.22709,0 -1.68057,-0.50684 -1.68057,-2.0807 0,-0.69357 0.90697,-3.06771 0.90697,-4.45484 0,-1.84063 -0.61354,-2.8543 -1.92065,-2.8543 -0.93365,0 -2.0807,1.46716 -2.0807,2.32078 0,0.26676 0.08,0.32011 0.26675,0.32011 0.18673,0 0.42681,-0.34678 1.25376,-0.34678 1.22708,0 1.28043,1.36046 1.28043,1.92065 z" /><path
       id="path1792"
       style="font-size:26.6757px;stroke-width:1.00034"
       d="m 394.47698,140.80641 c 0.18673,-0.42681 0.13337,-0.90697 -0.32011,-0.90697 -0.66689,0 -0.82695,0.37346 -1.28044,1.41381 l -7.41584,17.20583 c -0.24008,0.53351 -0.42681,1.30711 0.08,1.30711 0.45348,0 0.74692,-0.26676 0.96032,-0.74692 z" /><path
       id="path1794"
       style="font-size:26.6757px;stroke-width:1.00034"
       d="m 399.17009,149.84948 c 0,-0.6669 0.24009,-1.09371 0.96033,-1.30711 0.72024,-0.21341 1.04035,-0.42681 1.04035,-0.69357 0,-0.26676 -0.24008,-0.53351 -0.93365,-0.53351 -0.58686,0 -1.65389,0.16005 -2.1874,0.16005 -0.42682,0 -1.62722,-0.16005 -2.21409,-0.16005 -0.69357,0 -0.90697,0.26675 -0.90697,0.53351 0,0.26676 0.29343,0.48016 1.01367,0.69357 0.72025,0.2134 1.01368,0.64021 1.01368,1.30711 v 6.29546 c 0,0.66689 -0.29343,1.06703 -1.01368,1.28044 -0.72024,0.2134 -1.17373,0.42681 -1.17373,0.69356 0,0.26676 0.24009,0.53352 0.93365,0.53352 0.58687,0 1.84063,-0.16006 2.37414,-0.16006 0.42681,0 1.7606,0.16006 2.34746,0.16006 0.69357,0 0.90698,-0.26676 0.90698,-0.53352 0,-0.26675 -0.42681,-0.48016 -1.14706,-0.69356 -0.72024,-0.21341 -1.01368,-0.61355 -1.01368,-1.28044 z" /><path
       id="path1796"
       style="font-size:26.6757px;stroke-width:1.00034"
       d="m 404.47853,152.94386 c 0,-2.05403 1.7606,-4.34814 3.81463,-4.34814 2.0807,0 4.32146,1.84062 4.32146,3.92133 0,2.21408 -1.84062,4.42816 -4.0547,4.42816 -2.10738,0 -4.08139,-1.89397 -4.08139,-4.00135 z m 3.94801,-5.8153 c -2.90765,0 -5.6019,2.77427 -5.6019,5.68192 0,3.09438 2.53419,5.89533 5.6019,5.89533 3.30778,0 5.97535,-3.06771 5.97535,-6.37549 0,-2.90765 -3.0677,-5.20176 -5.97535,-5.20176 z" /><path
       id="path1798"
       style="font-size:21.3406px"
       d="m 419.17681,143.81858 c 0,-0.53352 0.19206,-0.87497 0.76826,-1.04569 0.5762,-0.17072 0.83228,-0.34145 0.83228,-0.55486 0,-0.2134 -0.19206,-0.42681 -0.74692,-0.42681 -0.46949,0 -1.32312,0.12805 -1.74993,0.12805 -0.34145,0 -1.30177,-0.12805 -1.77127,-0.12805 -0.55485,0 -0.72558,0.21341 -0.72558,0.42681 0,0.21341 0.23475,0.38414 0.81095,0.55486 0.57619,0.17072 0.81094,0.51217 0.81094,1.04569 v 5.03638 c 0,0.53352 -0.23475,0.85362 -0.81094,1.02435 -0.5762,0.17072 -0.93899,0.34145 -0.93899,0.55486 0,0.2134 0.19206,0.42681 0.74692,0.42681 0.46949,0 1.4725,-0.12805 1.89931,-0.12805 0.34145,0 1.40848,0.12805 1.87798,0.12805 0.55485,0 0.72558,-0.21341 0.72558,-0.42681 0,-0.21341 -0.34145,-0.38414 -0.91765,-0.55486 -0.5762,-0.17073 -0.81094,-0.49083 -0.81094,-1.02435 z" /><path
       id="path1800"
       style="font-size:21.3406px"
       d="m 423.97842,148.59887 2.88098,-3.96935 c 0.19207,-0.25608 0.19207,-0.14938 0.19207,0.0854 v 3.96936 c 0,0.23474 -0.0427,0.27742 -0.27743,0.27742 h -2.53953 c -0.40547,0 -0.44815,-0.0854 -0.25609,-0.36279 z m 4.37482,-6.99971 c -0.19206,0 -0.51217,0.0854 -0.72558,0.40547 l -4.80163,6.67961 c -0.34145,0.46949 -0.70424,0.81094 -0.70424,1.10971 0,0.25608 0.1067,0.51217 0.32011,0.51217 h 4.3108 c 0.25609,0 0.29877,0.064 0.29877,0.32011 v 3.15841 c 0,0.32011 0.1067,0.64022 0.57619,0.64022 0.59754,0 1.19508,-0.42681 1.19508,-1.02435 v -2.79562 c 0,-0.27743 0.0854,-0.32011 0.38413,-0.32011 h 1.42982 c 0.6829,0 1.08837,-0.44815 1.08837,-0.91764 0,-0.27743 -0.1067,-0.40548 -0.34145,-0.40548 h -2.11272 c -0.40547,0 -0.44815,-0.0854 -0.44815,-0.29876 v -6.44487 c 0,-0.44815 -0.10671,-0.61887 -0.4695,-0.61887 z" /><path
       id="path1802"
       style="font-size:26.6757px;stroke-width:1.00034"
       d="m 443.82511,151.50337 c 0,-0.26676 0.13338,-0.24008 0.40014,-0.24008 h 6.98903 c 0.26676,0 0.37346,0.0267 0.37346,0.29343 v 3.92133 c 0,0.987 -0.08,1.52051 -0.987,1.92065 -0.58687,0.26676 -1.46716,0.40013 -1.46716,0.80027 0,0.26676 0.58686,0.42681 0.88029,0.45349 0.18673,0 1.49384,-0.16006 2.7476,-0.16006 1.28043,0 3.04103,0.16006 3.22776,0.16006 0.29343,-0.0267 0.85362,-0.18673 0.85362,-0.45349 0,-0.40014 -0.88029,-0.53351 -1.46716,-0.80027 -0.90697,-0.40014 -1.25376,-0.93365 -1.25376,-1.92065 v -9.73663 c 0,-1.52052 0.69357,-1.54719 2.21408,-1.974 0.24009,-0.08 0.40014,-0.21341 0.40014,-0.45349 0,-0.32011 -0.53351,-0.48016 -0.93365,-0.48016 -0.90697,0 -2.00068,0.13338 -2.93433,0.13338 -0.96032,0 -1.65389,-0.13338 -2.69424,-0.13338 -0.40014,0 -0.93365,0.16005 -0.93365,0.48016 0,0.24008 0.18673,0.37346 0.42681,0.45349 1.52051,0.42681 1.92065,0.45348 1.92065,1.974 v 3.89465 c 0,0.26676 -0.08,0.34678 -0.34678,0.34678 h -7.06906 c -0.26676,0 -0.34679,-0.16005 -0.34679,-0.29343 v -3.948 c 0,-1.52052 0.42681,-1.54719 1.94733,-1.974 0.24008,-0.08 0.40013,-0.21341 0.40013,-0.45349 0,-0.32011 -0.53351,-0.48016 -0.93365,-0.48016 -0.90697,0 -1.73392,0.13338 -2.66757,0.13338 -0.96032,0 -1.92065,-0.13338 -2.961,-0.13338 -0.40013,0 -0.93365,0.16005 -0.93365,0.48016 0,0.24008 0.18673,0.37346 0.42681,0.45349 1.52052,0.42681 2.18741,0.45348 2.18741,1.974 v 9.73663 c 0,0.987 -0.34678,1.52051 -1.25376,1.92065 -0.58686,0.26676 -1.46716,0.40013 -1.46716,0.80027 0,0.26676 0.58686,0.42681 0.8803,0.45349 0.18673,0 1.76059,-0.16006 3.01435,-0.16006 1.28043,0 2.77427,0.16006 2.961,0.16006 0.29344,-0.0267 0.85363,-0.18673 0.85363,-0.45349 0,-0.40014 -0.8803,-0.53351 -1.46717,-0.80027 -0.90697,-0.40014 -0.987,-0.93365 -0.987,-1.92065 z" /><path
       id="path1804"
       style="font-size:26.6757px;stroke-width:1.00034"
       d="m 459.61709,147.34196 c -0.48016,0 -1.33379,1.65389 -1.33379,2.58754 0,0.45349 0.13338,0.58687 0.40014,0.58687 0.18673,0 0.53351,-0.26676 0.85362,-0.72024 0.58687,-0.80028 0.90697,-1.01368 1.65389,-1.01368 h 3.30779 c 0.42681,0 0.45349,0.0533 0.1067,0.48016 l -5.94868,7.38917 c -0.48016,0.61354 -0.77359,0.96032 -0.77359,1.33378 0,0.32011 0.40013,0.6669 0.85362,0.6669 1.84062,0 3.17441,-0.16006 4.64157,-0.16006 1.52052,0 2.72092,0.16006 3.70792,0.16006 0.37346,0 1.36046,-1.94733 1.36046,-3.28111 0,-0.45349 -0.13337,-0.6669 -0.37346,-0.6669 -0.26675,0 -0.72024,0.7736 -1.3071,1.49384 -0.85363,1.04036 -1.14706,1.14706 -1.89398,1.14706 h -3.22776 c -0.37346,0 -0.69357,-0.08 -0.45349,-0.37346 l 5.97536,-7.44252 c 0.45349,-0.58687 1.17373,-1.25376 1.17373,-1.57387 0,-0.2134 0.0534,-0.58686 -0.32011,-0.58686 -0.34678,0 -0.96032,0.1067 -2.05403,0.1067 h -5.01503 c -0.53351,0 -1.01367,-0.13338 -1.33378,-0.13338 z" /></g><g
     inkscape:transform-center-y="-9.814429"
     inkscape:transform-center-x="-24.795801"
     style="font-size:32.0108px;line-height:1.25;font-family:'EB Garamond';-inkscape-font-specification:'EB Garamond, Normal';text-align:end;text-decoration:none;text-decoration-line:none;text-decoration-color:#000000;letter-spacing:0px;word-spacing:0px;text-anchor:end;fill:#d40000;fill-rule:evenodd;stroke-width:1.00034;stop-color:#000000"
     id="text1190"
     aria-label="Zn"><path
       id="path1785"
       style="fill:#d40000;stroke-width:1.00034"
       d="m 402.27712,47.153464 c 0.96032,0 7.23444,0.160054 8.41884,0.160054 0.54418,0 0.64021,-0.128043 0.8963,-0.608205 0.25609,-0.416141 1.05636,-3.009015 1.05636,-3.873307 0,-0.896302 -0.25609,-1.504507 -0.5762,-1.504507 -0.28809,0 -0.70423,0.256086 -0.86429,0.608205 -0.92831,1.952659 -1.34445,3.873306 -3.80928,3.873306 h -6.88233 c -0.64021,0 -0.83228,-0.09603 -0.44815,-0.640216 l 9.98737,-13.988719 c 0.76826,-1.056356 1.1844,-1.664561 1.1844,-2.01668 0,-0.80027 -0.54418,-0.736249 -1.24842,-0.736249 -1.08837,0 -4.19341,0.09603 -5.08972,0.09603 h -5.82596 c -1.50451,0 -2.11271,-0.352119 -2.68891,-0.352119 -0.38413,0 -0.64021,0.160054 -0.73625,0.704238 -0.22407,1.152388 -0.35212,2.688907 -0.35212,2.944993 0,0.448151 0.096,0.896303 0.48017,0.896303 0.28809,0 1.1844,-1.280432 1.7926,-1.98467 0.41614,-0.480162 0.96032,-0.832281 2.14472,-0.832281 h 6.24211 c 0.64022,0 0.80027,0.160054 0.41614,0.704238 l -9.15509,12.964374 c -1.21641,1.696572 -2.01668,2.592874 -2.01668,2.848961 0,0.640216 0.19207,0.896302 0.5762,0.896302 2.11271,0 4.06537,-0.160054 6.49819,-0.160054 z" /><path
       id="path1787"
       style="fill:#d40000;stroke-width:1.00034"
       d="m 427.30955,43.728309 v -5.793955 c 0,-2.336789 -1.76059,-4.449501 -4.00135,-4.449501 -1.66456,0 -2.91298,0.384129 -3.96934,1.248421 -0.25609,0.224075 -0.64021,0.672227 -0.64021,0.192065 v -0.80027 c 0,-0.608205 0,-0.896303 -0.38413,-0.896303 -0.32011,0 -2.945,1.056357 -3.32913,1.248421 -0.41614,0.192065 -0.92831,0.448152 -0.92831,0.80027 0,0.352119 0.32011,0.544184 0.67223,0.672227 0.76826,0.288097 1.31244,1.088367 1.31244,1.632551 v 6.210095 c 0,0.80027 -0.35212,1.792605 -1.21641,2.048691 -0.86429,0.256087 -1.24842,0.512173 -1.24842,0.832281 0,0.320108 0.12804,0.640216 0.96032,0.640216 0.70424,0 2.20875,-0.192065 2.84896,-0.192065 0.51218,0 1.63255,0.192065 2.33679,0.192065 0.83228,0 0.92831,-0.320108 0.92831,-0.640216 0,-0.320108 -0.35211,-0.576194 -1.21641,-0.832281 -0.6082,-0.192065 -0.73624,-1.248421 -0.73624,-2.048691 l 0.032,-5.121728 c 0,-2.432821 1.28043,-3.521188 3.13705,-3.521188 1.66457,0 2.78494,1.856627 2.78494,3.745264 v 4.897652 c 0,0.80027 -0.16005,1.888637 -0.73624,2.048691 -0.8643,0.256087 -1.24843,0.512173 -1.24843,0.832281 0,0.320108 0.12805,0.640216 0.96033,0.640216 0.70424,0 1.72858,-0.192065 2.3688,-0.192065 0.51217,0 2.11271,0.192065 2.81695,0.192065 0.83228,0 0.86429,-0.320108 0.86429,-0.640216 0,-0.320108 -0.2881,-0.576194 -1.15239,-0.832281 -0.86429,-0.256086 -1.21641,-1.280432 -1.21641,-2.112712 z" /></g><g
     style="font-size:21.3406px;line-height:1.25;font-family:'EB Garamond';-inkscape-font-specification:'EB Garamond, Normal';text-align:start;text-decoration:none;text-decoration-line:none;text-decoration-color:#000000;letter-spacing:0px;word-spacing:0px;text-anchor:start;fill:#333333;fill-rule:evenodd;stroke-width:1.00034;stop-color:#000000"
     id="text1194"
     aria-label="-4.3 V"><path
       id="path1774"
       style="font-size:21.3406px;text-align:start;text-anchor:start;stroke-width:1.00034"
       d="m 52.377991,326.67406 -5.079062,0.40548 c -0.554856,0.064 -0.789602,0.81094 -0.789602,1.21641 0,0.42681 0.426812,0.46949 1.152392,0.40547 l 4.673591,-0.38413 c 0.490834,-0.0213 0.70424,-0.55485 0.70424,-1.04569 0,-0.49083 -0.36279,-0.61888 -0.661559,-0.59754 z" /><path
       id="path1776"
       style="font-size:21.3406px;text-align:start;text-anchor:start;stroke-width:1.00034"
       d="m 56.539401,330.23794 2.880981,-3.96935 c 0.192065,-0.25608 0.192065,-0.14938 0.192065,0.0854 v 3.96935 c 0,0.23474 -0.04268,0.27742 -0.277428,0.27742 h -2.539531 c -0.405471,0 -0.448152,-0.0854 -0.256087,-0.36279 z m 4.374823,-6.99971 c -0.192066,0 -0.512175,0.0854 -0.725581,0.40547 l -4.801634,6.67961 c -0.34145,0.46949 -0.70424,0.81094 -0.70424,1.10971 0,0.25609 0.106703,0.51217 0.320109,0.51217 h 4.310801 c 0.256087,0 0.298768,0.064 0.298768,0.32011 v 3.15841 c 0,0.32011 0.106703,0.64022 0.576196,0.64022 0.597537,0 1.195074,-0.42681 1.195074,-1.02435 v -2.79562 c 0,-0.27743 0.08536,-0.32011 0.384131,-0.32011 h 1.42982 c 0.682899,0 1.08837,-0.44815 1.08837,-0.91764 0,-0.27743 -0.106703,-0.40548 -0.341449,-0.40548 H 61.83187 c -0.405472,0 -0.448153,-0.0854 -0.448153,-0.29876 v -6.44486 c 0,-0.44816 -0.106703,-0.61888 -0.469493,-0.61888 z" /><path
       id="path1778"
       style="font-size:21.3406px;text-align:start;text-anchor:start;stroke-width:1.00034"
       d="m 67.508455,329.98186 c -0.768262,0 -1.536523,0.46949 -1.536523,1.23775 0,0.7896 0.554855,1.32312 1.344457,1.32312 0.70424,0 1.301777,-0.70424 1.301777,-1.40848 0,-0.55486 -0.512175,-1.15239 -1.109711,-1.15239 z" /><path
       id="path1780"
       style="font-size:21.3406px;text-align:start;text-anchor:start;stroke-width:1.00034"
       d="m 73.334425,323.30225 c -1.643226,0 -3.094386,1.70725 -3.094386,2.1554 0,0.14938 0.06402,0.34145 0.298768,0.34145 0.213406,0 0.277428,-0.0854 0.34145,-0.17072 0.576196,-0.61888 1.131051,-1.00301 1.81395,-1.00301 0.661559,0 1.280436,0.44815 1.280436,1.25909 0,1.13105 -0.298768,1.64323 -0.682899,1.98468 -0.618877,0.55485 -1.024349,0.64022 -1.493842,0.91764 -0.256087,0.14939 -0.661558,0.61888 -0.661558,0.81095 0,0.14938 0.192065,0.46949 0.36279,0.46949 0.08536,0 0.661558,-0.25609 1.323117,-0.25609 1.579204,0 1.557864,0.96033 1.557864,1.942 0,1.40848 -0.768262,2.90232 -1.835292,2.90232 -0.405471,0 -1.387139,-0.25609 -1.579204,-0.25609 -0.405471,0 -0.853624,0.27743 -0.853624,0.72558 0,0.34145 0.34145,0.66156 0.768262,0.66156 2.774277,0 5.207106,-2.02736 5.207106,-4.80163 0,-0.83229 -0.362791,-2.1554 -2.390147,-2.36881 -0.106703,-0.0213 -0.106703,-0.0854 -0.02134,-0.12804 1.749929,-1.10972 1.963335,-1.79261 1.963335,-2.96635 0,-1.28043 -1.045689,-2.21942 -2.304785,-2.21942 z" /><path
       id="path1782"
       style="font-size:21.3406px;text-align:start;text-anchor:start;stroke-width:1.00034"
       d="m 88.998383,323.61435 c 0.896305,0.29877 1.344458,0.70424 0.853624,2.17674 l -2.262103,6.2528 c -0.106703,0.32011 -0.170725,0.29877 -0.277428,-0.0213 l -2.560872,-6.80765 c -0.34145,-0.93899 0.426812,-1.32312 1.344458,-1.62189 0.192065,-0.064 0.320109,-0.17073 0.320109,-0.36279 0,-0.25609 -0.426812,-0.38413 -0.746921,-0.38413 -0.725581,0 -1.899314,0.1067 -2.646235,0.1067 -0.768261,0 -0.853624,-0.1067 -1.685907,-0.1067 -0.320109,0 -0.746921,0.12804 -0.746921,0.38413 0,0.19206 0.149384,0.29877 0.34145,0.36279 1.344457,0.44815 1.557863,1.10971 1.920654,2.09138 l 3.243771,8.6216 c 0.320109,0.89631 0.640218,1.4725 0.810942,1.4725 0.277428,0 1.04569,-1.89931 1.40848,-2.90232 l 2.646234,-7.29848 c 0.34145,-0.96033 0.725581,-1.66457 1.707248,-1.98468 0.192066,-0.064 0.36279,-0.17073 0.36279,-0.36279 0,-0.25609 -0.426812,-0.38413 -0.746921,-0.38413 -0.320109,0 -1.045689,0.1067 -1.365798,0.1067 -0.320109,0 -1.216414,-0.1067 -1.536523,-0.1067 -0.320109,0 -0.746921,0.12804 -0.746921,0.38413 0,0.19206 0.170725,0.32011 0.36279,0.38413 z" /></g><g
     style="font-size:24.0081px;line-height:1.25;font-family:'EB Garamond';-inkscape-font-specification:'EB Garamond, Normal';text-align:end;text-decoration:none;text-decoration-line:none;text-decoration-color:#000000;letter-spacing:0px;word-spacing:0px;text-anchor:end;fill:#333333;fill-rule:evenodd;stroke-width:1.00034;stop-color:#000000"
     id="text1198"
     aria-label="2"><path
       id="path1771"
       style="font-size:24.0081px;stroke-width:1.00034"
       d="m 81.728609,156.73157 -2.520851,0.024 c -0.144049,0 -0.360121,-0.096 -0.216073,-0.19207 0.240081,-0.16805 1.992672,-1.99267 2.712916,-2.88097 0.840283,-1.03235 1.680567,-2.01668 1.680567,-3.02502 0,-1.51251 -1.296438,-2.59287 -2.832956,-2.59287 -2.832956,0 -3.961337,2.28076 -3.961337,2.49684 0,0.14405 0.168057,0.52818 0.312105,0.52818 0.144049,0 0.26409,-0.14405 0.360122,-0.24008 0.816275,-0.91231 1.51251,-1.15239 2.592875,-1.15239 0.912308,0 1.488502,0.52817 1.488502,1.65656 0,1.94465 -3.241094,4.70558 -3.769272,5.13773 -0.384129,0.3121 -0.840283,0.72024 -1.248421,1.12838 -0.09603,0.096 -0.168057,0.19206 -0.168057,0.2881 0,0.096 0.312106,0.50417 0.38413,0.50417 0.12004,0 2.088705,-0.14405 3.649231,-0.14405 1.368462,0 2.448826,0.14405 3.337126,0.14405 0.336114,0 1.224413,-1.75259 1.224413,-2.953 0,-0.40814 -0.12004,-0.6002 -0.336113,-0.6002 -0.240081,0 -0.50417,0.50417 -1.032348,1.15239 -0.38413,0.45615 -0.984333,0.79226 -1.656559,0.72024 z" /></g><g
     style="font-size:24.0081px;line-height:1.25;font-family:'EB Garamond';-inkscape-font-specification:'EB Garamond, Normal';text-align:end;text-decoration:none;text-decoration-line:none;text-decoration-color:#000000;letter-spacing:0px;word-spacing:0px;text-anchor:end;fill:#333333;fill-rule:evenodd;stroke-width:1.00034;stop-color:#000000"
     id="text1202"
     aria-label="4"><path
       id="path1768"
       style="font-size:24.0081px;stroke-width:1.00034"
       d="m 128.97663,154.55409 3.24109,-4.46551 c 0.21607,-0.28809 0.21607,-0.16805 0.21607,0.096 v 4.4655 c 0,0.26409 -0.048,0.31211 -0.3121,0.31211 h -2.85697 c -0.45615,0 -0.50417,-0.096 -0.28809,-0.40814 z m 4.92166,-7.87466 c -0.21608,0 -0.5762,0.096 -0.81628,0.45616 l -5.40182,7.51453 c -0.38413,0.52818 -0.79227,0.91231 -0.79227,1.24843 0,0.28809 0.12004,0.57619 0.36012,0.57619 h 4.84964 c 0.2881,0 0.33611,0.072 0.33611,0.36012 v 3.5532 c 0,0.36012 0.12004,0.72024 0.64822,0.72024 0.67223,0 1.34445,-0.48016 1.34445,-1.15239 v -3.14506 c 0,-0.3121 0.096,-0.36012 0.43215,-0.36012 h 1.60854 c 0.76826,0 1.22442,-0.50417 1.22442,-1.03235 0,-0.3121 -0.12004,-0.45615 -0.38413,-0.45615 h -2.37681 c -0.45615,0 -0.50417,-0.096 -0.50417,-0.33611 v -7.25045 c 0,-0.50417 -0.12004,-0.69624 -0.52817,-0.69624 z" /></g><g
     style="font-size:24.0081px;line-height:1.25;font-family:'EB Garamond';-inkscape-font-specification:'EB Garamond, Normal';text-align:end;text-decoration:none;text-decoration-line:none;text-decoration-color:#000000;letter-spacing:0px;word-spacing:0px;text-anchor:end;fill:#333333;fill-rule:evenodd;stroke-width:1.00034;stop-color:#000000"
     id="text1206"
     aria-label="6"><path
       id="path1765"
       style="font-size:24.0081px;stroke-width:1.00034"
       d="m 183.77132,156.37718 c 0,-1.27243 0.31211,-2.953 1.53652,-2.953 1.87263,0 3.33713,1.58454 3.33713,3.45717 0,1.56053 -0.69624,3.43316 -2.04069,3.43316 -1.68057,0 -2.83296,-2.20875 -2.83296,-3.93733 z m 5.40183,-8.93101 c -0.38413,0 -0.91231,0.12004 -1.4645,0.38413 -3.02502,1.41647 -6.33814,4.56153 -6.33814,7.77862 0,3.24109 1.7766,5.76194 4.89766,5.76194 2.59287,0 4.68158,-2.56886 4.68158,-5.06571 0,-2.11271 -2.40081,-3.76927 -4.58555,-3.76927 -0.43215,0 -0.98433,0.072 -1.34446,0.19207 -0.12004,0.048 -0.48016,0.14405 -0.40813,-0.072 0.6002,-1.82461 2.6649,-3.2651 4.00935,-3.88931 0.62421,-0.2881 1.03235,-0.72024 1.03235,-0.8883 0,-0.2881 -0.14405,-0.43214 -0.48016,-0.43214 z" /></g><g
     style="font-size:24.0081px;line-height:1.25;font-family:'EB Garamond';-inkscape-font-specification:'EB Garamond, Normal';text-align:end;text-decoration:none;text-decoration-line:none;text-decoration-color:#000000;letter-spacing:0px;word-spacing:0px;text-anchor:end;fill:#333333;fill-rule:evenodd;stroke-width:1.00034;stop-color:#000000"
     id="text1210"
     aria-label="8"><path
       id="path1762"
       style="font-size:24.0081px;stroke-width:1.00034"
       d="m 236.92368,153.69389 -0.74425,0.67223 c -1.20041,1.08036 -2.28077,1.82461 -2.28077,3.43316 0,1.65656 1.36846,3.02502 3.02502,3.02502 2.35279,0 5.0417,-0.98433 5.0417,-3.33713 0,-1.15239 -0.36012,-1.89664 -1.1764,-2.71291 l -1.68057,-1.70458 1.34446,-1.32044 c 0.52818,-0.52818 1.00834,-1.00834 1.00834,-1.7526 0,-1.58453 -1.24842,-2.90498 -2.83296,-2.90498 -2.01668,0 -4.05737,1.1764 -4.05737,3.19308 0,0.91231 0.26409,1.51251 0.93632,2.13672 z m 2.85696,-3.74526 c 0,0.74425 -0.16806,1.32044 -0.72024,1.82461 l -0.64822,0.5762 -0.62421,-0.62421 c -0.6002,-0.60021 -1.24842,-1.03235 -1.24842,-1.80061 0,-0.8883 0.57619,-1.92065 1.46449,-1.92065 0.98433,0 1.7766,1.03235 1.7766,1.94466 z m -3.72126,7.58656 c 0,-0.84029 0.19207,-1.68057 0.81628,-2.30478 l 0.81628,-0.81628 0.86429,0.79227 c 0.93631,0.84029 1.24842,1.80061 1.24842,3.04903 0,0.8883 -1.05636,1.60854 -1.94466,1.60854 -1.08036,0 -1.80061,-1.24842 -1.80061,-2.32878 z" /></g><g
     style="font-size:24.0081px;line-height:1.25;font-family:'EB Garamond';-inkscape-font-specification:'EB Garamond, Normal';text-align:end;text-decoration:none;text-decoration-line:none;text-decoration-color:#000000;letter-spacing:0px;word-spacing:0px;text-anchor:end;fill:#333333;fill-rule:evenodd;stroke-width:1.00034;stop-color:#000000"
     id="text1214"
     aria-label="12"><path
       id="path1757"
       style="font-size:24.0081px;stroke-width:1.00034"
       d="m 339.86557,149.75877 c 0,-0.60021 0.21608,-0.98434 0.8643,-1.1764 0.64821,-0.19207 0.93631,-0.38413 0.93631,-0.62421 0,-0.24008 -0.21607,-0.48016 -0.84028,-0.48016 -0.52818,0 -1.4885,0.14404 -1.96867,0.14404 -0.38413,0 -1.46449,-0.14404 -1.99267,-0.14404 -0.62421,0 -0.81627,0.24008 -0.81627,0.48016 0,0.24008 0.26408,0.43214 0.9123,0.62421 0.64822,0.19206 0.91231,0.57619 0.91231,1.1764 v 5.66591 c 0,0.6002 -0.26409,0.96032 -0.91231,1.15239 -0.64822,0.19206 -1.05635,0.38413 -1.05635,0.62421 0,0.24008 0.21607,0.48016 0.84028,0.48016 0.52818,0 1.65656,-0.14405 2.13672,-0.14405 0.38413,0 1.58454,0.14405 2.11271,0.14405 0.62422,0 0.81628,-0.24008 0.81628,-0.48016 0,-0.24008 -0.38413,-0.43215 -1.03235,-0.62421 -0.64822,-0.19207 -0.91231,-0.55219 -0.91231,-1.15239 z" /><path
       id="path1759"
       style="font-size:24.0081px;stroke-width:1.00034"
       d="m 348.70053,156.00087 -2.52085,0.024 c -0.14405,0 -0.36012,-0.096 -0.21607,-0.19206 0.24008,-0.16806 1.99267,-1.99268 2.71291,-2.88098 0.84029,-1.03235 1.68057,-2.01668 1.68057,-3.02502 0,-1.51251 -1.29644,-2.59287 -2.83295,-2.59287 -2.83296,0 -3.96134,2.28077 -3.96134,2.49684 0,0.14405 0.16806,0.52818 0.3121,0.52818 0.14405,0 0.26409,-0.14405 0.36013,-0.24008 0.81627,-0.91231 1.51251,-1.15239 2.59287,-1.15239 0.91231,0 1.4885,0.52818 1.4885,1.65656 0,1.94465 -3.24109,4.70559 -3.76927,5.13773 -0.38413,0.31211 -0.84028,0.72024 -1.24842,1.12838 -0.096,0.096 -0.16806,0.19207 -0.16806,0.2881 0,0.096 0.31211,0.50417 0.38413,0.50417 0.12004,0 2.08871,-0.14405 3.64923,-0.14405 1.36847,0 2.44883,0.14405 3.33713,0.14405 0.33611,0 1.22441,-1.75259 1.22441,-2.953 0,-0.40814 -0.12004,-0.6002 -0.33611,-0.6002 -0.24008,0 -0.50417,0.50417 -1.03235,1.15239 -0.38413,0.45615 -0.98433,0.79227 -1.65656,0.72024 z" /></g><g
     style="font-size:24.0081px;line-height:1.25;font-family:'EB Garamond';-inkscape-font-specification:'EB Garamond, Normal';text-align:end;text-decoration:none;text-decoration-line:none;text-decoration-color:#000000;letter-spacing:0px;word-spacing:0px;text-anchor:end;fill:#333333;fill-rule:evenodd;stroke-width:1.00034;stop-color:#000000"
     id="text1218"
     aria-label="2"><path
       id="path1754"
       style="font-size:24.0081px;stroke-width:1.00034"
       d="m 14.790006,55.594256 -2.52085,0.02401 c -0.144049,0 -0.360122,-0.09603 -0.216073,-0.192065 0.240081,-0.168057 1.992672,-1.992672 2.712915,-2.880972 0.840284,-1.032348 1.680567,-2.01668 1.680567,-3.025021 0,-1.51251 -1.296437,-2.592874 -2.832956,-2.592874 -2.832956,0 -3.9613364,2.280769 -3.9613364,2.496842 0,0.144049 0.1680567,0.528178 0.3121054,0.528178 0.144049,0 0.264089,-0.144048 0.360121,-0.240081 0.816276,-0.912308 1.512511,-1.152389 2.592875,-1.152389 0.912308,0 1.488503,0.528179 1.488503,1.656559 0,1.944656 -3.241094,4.705588 -3.769272,5.137734 -0.38413,0.312105 -0.8402838,0.720243 -1.2484215,1.128381 -0.096032,0.09603 -0.1680567,0.192064 -0.1680567,0.288097 0,0.09603 0.3121053,0.50417 0.3841296,0.50417 0.1200405,0 2.0887046,-0.144049 3.6492316,-0.144049 1.368461,0 2.448826,0.144049 3.337126,0.144049 0.336113,0 1.224413,-1.752591 1.224413,-2.952997 0,-0.408137 -0.120041,-0.600202 -0.336114,-0.600202 -0.240081,0 -0.50417,0.50417 -1.032348,1.152389 -0.38413,0.456154 -0.984332,0.792267 -1.656559,0.720243 z" /></g><g
     style="font-size:24.0081px;line-height:1.25;font-family:'EB Garamond';-inkscape-font-specification:'EB Garamond, Normal';text-align:end;text-decoration:none;text-decoration-line:none;text-decoration-color:#000000;letter-spacing:0px;word-spacing:0px;text-anchor:end;fill:#333333;fill-rule:evenodd;stroke-width:1.00034;stop-color:#000000"
     id="text1222"
     aria-label="0"><path
       id="path1751"
       style="font-size:24.0081px;stroke-width:1.00034"
       d="m 8.6375626,136.18345 c 0,-1.84863 1.5845344,-3.91332 3.4331584,-3.91332 1.872632,0 3.889312,1.65655 3.889312,3.52919 0,1.99267 -1.656559,3.98534 -3.649231,3.98534 -1.89664,0 -3.6732394,-1.70457 -3.6732394,-3.60121 z m 3.5531984,-5.23377 c -2.6168825,0 -5.0417006,2.49684 -5.0417006,5.11373 0,2.78493 2.2807695,5.30579 5.0417006,5.30579 2.977005,0 5.377815,-2.76094 5.377815,-5.73794 0,-2.61688 -2.760932,-4.68158 -5.377815,-4.68158 z" /></g><g
     style="font-size:24.0081px;line-height:1.25;font-family:'EB Garamond';-inkscape-font-specification:'EB Garamond, Normal';text-align:end;text-decoration:none;text-decoration-line:none;text-decoration-color:#000000;letter-spacing:0px;word-spacing:0px;text-anchor:end;fill:#333333;fill-rule:evenodd;stroke-width:1.00034;stop-color:#000000"
     id="text1226"
     aria-label="-2"><path
       id="path1746"
       style="font-size:24.0081px;stroke-width:1.00034"
       d="m 7.5273667,218.91505 -5.7139279,0.45616 c -0.6242106,0.072 -0.88829973,0.91231 -0.88829973,1.36846 0,0.48016 0.48016203,0.52818 1.29643743,0.45615 l 5.257774,-0.43214 c 0.5521863,-0.024 0.7922673,-0.62421 0.7922673,-1.1764 0,-0.55219 -0.4081377,-0.69623 -0.7442511,-0.67223 z" /><path
       id="path1748"
       style="font-size:24.0081px;stroke-width:1.00034"
       d="m 15.642097,223.7887 -2.52085,0.024 c -0.144049,0 -0.360122,-0.096 -0.216073,-0.19207 0.240081,-0.16805 1.992672,-1.99267 2.712915,-2.88097 0.840284,-1.03235 1.680567,-2.01668 1.680567,-3.02502 0,-1.51251 -1.296437,-2.59288 -2.832956,-2.59288 -2.832955,0 -3.961336,2.28077 -3.961336,2.49685 0,0.14405 0.168056,0.52817 0.312105,0.52817 0.144049,0 0.264089,-0.14404 0.360122,-0.24008 0.816275,-0.9123 1.51251,-1.15238 2.592874,-1.15238 0.912308,0 1.488503,0.52817 1.488503,1.65655 0,1.94466 -3.241094,4.70559 -3.769272,5.13774 -0.38413,0.3121 -0.840284,0.72024 -1.248421,1.12838 -0.09603,0.096 -0.168057,0.19206 -0.168057,0.2881 0,0.096 0.312105,0.50417 0.38413,0.50417 0.12004,0 2.088704,-0.14405 3.649231,-0.14405 1.368462,0 2.448826,0.14405 3.337126,0.14405 0.336113,0 1.224413,-1.7526 1.224413,-2.953 0,-0.40814 -0.120041,-0.6002 -0.336113,-0.6002 -0.240081,0 -0.504171,0.50417 -1.032349,1.15239 -0.384129,0.45615 -0.984332,0.79226 -1.656559,0.72024 z" /></g><g
     style="font-size:24.0081px;line-height:1.25;font-family:'EB Garamond';-inkscape-font-specification:'EB Garamond, Normal';text-align:end;text-decoration:none;text-decoration-line:none;text-decoration-color:#000000;letter-spacing:0px;word-spacing:0px;text-anchor:end;fill:#333333;fill-rule:evenodd;stroke-width:1.00034;stop-color:#000000"
     id="text1230"
     aria-label="-4"><path
       id="path1741"
       style="font-size:24.0081px;stroke-width:1.00034"
       d="m 5.8841589,301.88293 -5.71392796,0.45616 c -0.62421062,0.072 -0.88829972,0.91231 -0.88829972,1.36846 0,0.48016 0.48016201,0.52818 1.29643743,0.45615 l 5.25777405,-0.43214 c 0.5521863,-0.024 0.7922673,-0.62421 0.7922673,-1.1764 0,-0.55219 -0.4081377,-0.69623 -0.7442511,-0.67223 z" /><path
       id="path1743"
       style="font-size:24.0081px;stroke-width:1.00034"
       d="m 10.565731,305.89229 3.241094,-4.46551 c 0.216073,-0.2881 0.216073,-0.16806 0.216073,0.096 v 4.46551 c 0,0.26409 -0.04802,0.3121 -0.312106,0.3121 h -2.856964 c -0.456154,0 -0.50417,-0.096 -0.288097,-0.40813 z m 4.921661,-7.87466 c -0.216073,0 -0.576195,0.096 -0.816276,0.45615 l -5.4018224,7.51454 c -0.3841296,0.52818 -0.7922673,0.91231 -0.7922673,1.24842 0,0.2881 0.1200405,0.5762 0.3601215,0.5762 h 4.8496362 c 0.288097,0 0.336114,0.072 0.336114,0.36012 v 3.5532 c 0,0.36012 0.12004,0.72024 0.648218,0.72024 0.672227,0 1.344454,-0.48016 1.344454,-1.15239 v -3.14506 c 0,-0.31211 0.09603,-0.36012 0.432146,-0.36012 h 1.608542 c 0.76826,0 1.224414,-0.50417 1.224414,-1.03235 0,-0.31211 -0.120041,-0.45616 -0.38413,-0.45616 H 16.51974 c -0.456154,0 -0.50417,-0.096 -0.50417,-0.33611 v -7.25044 c 0,-0.50417 -0.120041,-0.69624 -0.528178,-0.69624 z" /></g><g
     style="font-size:26.6757px;line-height:1.25;font-family:'EB Garamond';-inkscape-font-specification:'EB Garamond, Normal';text-align:end;text-decoration:none;text-decoration-line:none;text-decoration-color:#000000;letter-spacing:0px;word-spacing:0px;text-anchor:end;fill:#333333;stroke-width:1.00034;stop-color:#000000"
     id="text2015"
     transform="rotate(-90)"
     aria-label="stopping voltage"><path
       id="path1710"
       style="font-size:26.6757px;stroke-width:1.00034"
       d="m -269.82227,-18.843342 c -1.8673,0 -3.41449,1.520514 -3.41449,3.334462 0,1.333785 1.04035,2.160732 2.24076,2.987678 l 1.28043,0.906974 c 0.64022,0.480163 1.20041,0.74692 1.20041,1.9206504 0,0.800271 -0.77359,1.333785 -1.57387,1.333785 -0.88029,0 -1.70724,-0.2934327 -2.05402,-1.0136766 -0.37346,-0.8269468 -0.90698,-1.0670278 -1.17374,-1.0670278 -0.26675,0 -0.29343,0.400135 -0.29343,0.8536222 0,0.4001355 0.32011,1.333785 0.45349,1.680569 0.13338,0.3467841 0.26676,0.3734598 0.66689,0.533514 0.26676,0.1067028 1.01368,0.2134056 1.7606,0.2134056 2.18741,0 4.02803,-1.6272176 4.02803,-3.8946518 0,-0.93365 -0.56019,-1.547191 -1.28044,-2.134056 l -2.1874,-1.653894 c -0.61354,-0.426811 -1.14706,-0.880298 -1.14706,-1.627217 0,-0.666893 0.56019,-1.147055 1.22708,-1.147055 0.82695,0 1.60055,0.453487 1.81395,1.067028 0.13338,0.533514 0.53352,0.666892 0.80027,0.666892 0.32011,0 0.32011,-0.266757 0.32011,-0.586865 0,-0.240081 -0.0534,-1.013677 -0.13338,-1.307109 -0.08,-0.266757 -0.13338,-0.346785 -0.29343,-0.426812 -0.85362,-0.346784 -1.41381,-0.640216 -2.24076,-0.640216 z" /><path
       id="path1712"
       style="font-size:26.6757px;stroke-width:1.00034"
       d="m -261.17938,-7.1593862 c 1.60054,0 3.04103,-1.3071092 3.04103,-1.9206503 0,-0.266757 -0.13338,-0.3734598 -0.40013,-0.3734598 -0.26676,0 -0.93365,0.4801626 -1.92065,0.4801626 -0.93365,0 -1.38714,-0.5868654 -1.38714,-2.4541643 v -4.988356 c 0,-0.37346 0.1067,-0.506838 0.42681,-0.506838 h 2.6409 c 0.37346,0 0.64021,-0.693568 0.64021,-0.960325 0,-0.266757 -0.1067,-0.613541 -0.53351,-0.613541 h -2.58754 c -0.34679,0 -0.58687,-0.133379 -0.58687,-0.400136 v -0.746919 c 0,-0.453487 -0.0534,-0.666893 -0.37346,-0.666893 -0.34678,0 -1.36046,1.013677 -1.73392,1.333785 -0.66689,0.56019 -1.78727,1.307109 -1.78727,1.680569 0,0.266757 0.61354,0.37346 0.85362,0.37346 0.987,0 0.82695,0.133378 0.82695,0.37346 v 6.348816 c 0,2.2674345 1.30711,3.0410298 2.88097,3.0410298 z" /><path
       id="path1714"
       style="font-size:26.6757px;stroke-width:1.00034"
       d="m -254.21705,-13.694932 c 0,-1.920651 1.01368,-4.028031 2.93433,-4.028031 2.32078,0 3.54786,2.560867 3.54786,4.935004 0,1.974002 -0.82694,4.374815 -2.80094,4.374815 -2.48084,0 -3.68125,-2.774273 -3.68125,-5.281788 z m 3.12106,-5.14841 c -2.88098,0 -5.78863,2.534191 -5.78863,5.735275 0,3.1744081 2.40081,5.9486808 5.65525,5.9486808 3.41449,0 6.13541,-2.9076508 6.13541,-6.3488168 0,-3.094381 -2.90765,-5.335139 -6.00203,-5.335139 z" /><path
       id="path1716"
       style="font-size:26.6757px;stroke-width:1.00034"
       d="m -240.53243,-15.562231 c 0,-0.960326 0.80027,-1.893975 2.00068,-1.893975 2.32078,0 2.93433,2.240759 2.93433,4.454842 0,2.187407 -0.93365,4.4281658 -3.01436,4.4281658 -0.987,0 -1.92065,-0.4268112 -1.92065,-1.4138121 z m -2.21408,12.4842268 c 0,0.6668925 -0.13338,1.3071093 -0.48016,1.4138121 -0.72025,0.2134056 -1.17373,0.4268112 -1.17373,0.69356815 0,0.26675699 0.24008,0.53351398 0.93364,0.53351398 2.48084,0 4.08139,0.34678409 4.98836,0.34678409 0.69357,0 0.90697,-0.26675699 0.90697,-0.53351398 0,-0.26675699 -0.42681,-0.48016254 -1.14705,-0.69356814 -1.44049,-0.4001355 -1.81395,-0.6135411 -1.81395,-1.5471906 v -4.2947876 c 0,-0.2400813 0.0267,-0.3734598 0.26676,-0.3734598 0.1067,0 0.50684,0.3201084 1.04035,0.3201084 3.54787,0 6.08206,-3.3878134 6.08206,-7.0157084 0,-2.240759 -1.78727,-4.614896 -4.00135,-4.614896 -1.20041,0 -2.58755,0.640216 -3.01436,1.067028 -0.2134,0.213405 -0.34678,0.08003 -0.37346,-0.05335 v -0.480162 c 0,-0.506839 0,-0.74692 -0.32011,-0.74692 -0.26675,0 -2.48084,0.880298 -2.77427,1.040352 -0.34678,0.160054 -0.77359,0.37346 -0.77359,0.666893 0,0.293432 0.26675,0.453487 0.56018,0.560189 0.64022,0.240082 1.09371,0.906974 1.09371,1.360461 z" /><path
       id="path1718"
       style="font-size:26.6757px;stroke-width:1.00034"
       d="m -228.58172,-15.562231 c 0,-0.960326 0.80027,-1.893975 2.00068,-1.893975 2.32079,0 2.93433,2.240759 2.93433,4.454842 0,2.187407 -0.93365,4.4281658 -3.01436,4.4281658 -0.987,0 -1.92065,-0.4268112 -1.92065,-1.4138121 z m -2.21408,12.4842268 c 0,0.6668925 -0.13338,1.3071093 -0.48016,1.4138121 -0.72025,0.2134056 -1.17373,0.4268112 -1.17373,0.69356815 0,0.26675699 0.24008,0.53351398 0.93365,0.53351398 2.48084,0 4.08138,0.34678409 4.98835,0.34678409 0.69357,0 0.90697,-0.26675699 0.90697,-0.53351398 0,-0.26675699 -0.42681,-0.48016254 -1.14705,-0.69356814 -1.44049,-0.4001355 -1.81395,-0.6135411 -1.81395,-1.5471906 v -4.2947876 c 0,-0.2400813 0.0267,-0.3734598 0.26676,-0.3734598 0.1067,0 0.50684,0.3201084 1.04035,0.3201084 3.54787,0 6.08206,-3.3878134 6.08206,-7.0157084 0,-2.240759 -1.78727,-4.614896 -4.00135,-4.614896 -1.20041,0 -2.58755,0.640216 -3.01436,1.067028 -0.2134,0.213405 -0.34678,0.08003 -0.37346,-0.05335 v -0.480162 c 0,-0.506839 0,-0.74692 -0.32011,-0.74692 -0.26675,0 -2.48084,0.880298 -2.77427,1.040352 -0.34678,0.160054 -0.77359,0.37346 -0.77359,0.666893 0,0.293432 0.26675,0.453487 0.56019,0.560189 0.64021,0.240082 1.0937,0.906974 1.0937,1.360461 z" /><path
       id="path1720"
       style="font-size:26.6757px;stroke-width:1.00034"
       d="m -217.03114,-24.578618 c -0.80027,0 -1.46716,0.640217 -1.46716,1.440488 0,0.826947 0.64021,1.493839 1.46716,1.493839 0.82695,0 1.46716,-0.666892 1.46716,-1.493839 0,-0.800271 -0.66689,-1.440488 -1.46716,-1.440488 z m -0.96032,9.149765 v 5.175086 c 0,0.6668922 -0.29344,1.4938389 -1.01368,1.7072445 -0.72025,0.2134056 -1.17373,0.4268112 -1.17373,0.6935681 0,0.266757 0.24008,0.533514 0.93365,0.533514 0.58686,0 1.84062,-0.1600542 2.37413,-0.1600542 0.42682,0 1.7606,0.1600542 2.34747,0.1600542 0.69356,0 0.90697,-0.266757 0.90697,-0.533514 0,-0.2667569 -0.42681,-0.4801625 -1.14705,-0.6935681 -0.72025,-0.2134056 -1.01368,-1.0403523 -1.01368,-1.7072445 v -8.029386 c 0,-0.533514 0,-0.773595 -0.32011,-0.773595 -0.26676,0 -2.48084,0.880298 -2.77427,1.040352 -0.34679,0.160054 -0.7736,0.37346 -0.7736,0.666893 0,0.293432 0.26676,0.453487 0.56019,0.560189 0.64022,0.240082 1.09371,0.906974 1.09371,1.360461 z" /><path
       id="path1722"
       style="font-size:26.6757px;stroke-width:1.00034"
       d="m -201.23915,-10.307119 v -4.828301 c 0,-1.947326 -1.46716,-3.707922 -3.33446,-3.707922 -1.38714,0 -2.42749,0.320108 -3.30779,1.040352 -0.2134,0.18673 -0.53351,0.56019 -0.53351,0.160054 v -0.666892 c 0,-0.506839 0,-0.74692 -0.32011,-0.74692 -0.26676,0 -2.45417,0.880298 -2.77427,1.040352 -0.34679,0.160054 -0.7736,0.37346 -0.7736,0.666893 0,0.293432 0.26676,0.453487 0.56019,0.560189 0.64022,0.240082 1.0937,0.906974 1.0937,1.360461 v 5.175086 c 0,0.6668922 -0.29343,1.4938389 -1.01367,1.7072445 -0.72025,0.2134056 -1.04035,0.4268112 -1.04035,0.6935681 0,0.266757 0.1067,0.533514 0.80027,0.533514 0.58686,0 1.84062,-0.1600542 2.37413,-0.1600542 0.42681,0 1.36046,0.1600542 1.94733,0.1600542 0.69357,0 0.77359,-0.266757 0.77359,-0.533514 0,-0.2667569 -0.29343,-0.4801625 -1.01367,-0.6935681 -0.50684,-0.1600542 -0.61354,-1.0403523 -0.61354,-1.7072445 l 0.0267,-4.268112 c 0,-2.027353 1.06703,-2.934327 2.61422,-2.934327 1.38714,0 2.32079,1.54719 2.32079,3.121057 v 4.081382 c 0,0.6668922 -0.13338,1.573866 -0.61354,1.7072445 -0.72025,0.2134056 -1.04036,0.4268112 -1.04036,0.6935681 0,0.266757 0.10671,0.533514 0.80027,0.533514 0.58687,0 1.44049,-0.1600542 1.97401,-0.1600542 0.42681,0 1.76059,0.1600542 2.34746,0.1600542 0.69357,0 0.72024,-0.266757 0.72024,-0.533514 0,-0.2667569 -0.24008,-0.4801625 -0.96032,-0.6935681 -0.72025,-0.2134056 -1.01368,-1.067028 -1.01368,-1.7605965 z" /><path
       id="path1724"
       style="font-size:26.6757px;stroke-width:1.00034"
       d="m -196.57092,-3.8782752 c 0,-0.5868654 0.3201,-1.2270821 0.987,-1.8406232 0.58686,-0.533514 1.0937,-0.7735953 1.78727,-0.7735953 2.69424,0 4.08138,0.4801626 4.08138,2.214083 0,1.6805691 -1.57387,2.66757 -3.52119,2.66757 -1.57387,0 -3.33446,-0.6135411 -3.33446,-2.2674345 z m 1.01367,-11.2037938 c 0,-1.227082 0.56019,-2.640894 1.78727,-2.640894 1.46717,0 2.5342,1.307109 2.5342,2.720921 0,1.573867 -0.64022,3.281111 -2.13406,3.281111 -1.54719,0 -2.18741,-1.813947 -2.18741,-3.361138 z m 2.18741,-3.761273 c -2.40081,0 -4.53487,1.787271 -4.53487,4.188084 0,1.573867 0.96033,2.827624 2.16073,3.521193 0.18673,0.106702 0.08,0.240081 0,0.346784 -0.42681,0.640217 -1.38713,1.4404875 -1.78727,1.7872716 -0.21341,0.1867299 -0.37346,0.3734598 -0.37346,0.6135411 0,0.880298 0.64022,1.2270821 1.52052,1.6272176 0.26675,0.1333785 0.29343,0.266757 0.16005,0.3467841 -1.28043,0.800271 -2.56087,2.0273531 -2.56087,3.3077867 0,2.0807046 1.89398,2.98767832 4.34814,2.98767832 3.46784,0 6.77563,-2.21408302 6.77563,-5.68192392 0,-1.4671635 -1.52052,-2.4541643 -2.69425,-2.5075157 l -3.20108,-0.1067028 c -1.28043,-0.026676 -2.00068,-0.3201084 -2.00068,-0.6935682 0,-0.4268112 0.50684,-1.0937038 0.90698,-1.4404878 0.13337,-0.106703 0.3201,-0.133378 0.34678,-0.133378 0.13338,0 0.37346,0.08003 0.66689,0.08003 2.40082,0 4.48152,-2.347462 4.48152,-4.294788 0,-0.18673 -0.13338,-0.960325 -0.21341,-1.173731 -0.0533,-0.160054 0.0534,-0.293432 0.24009,-0.293432 0.24008,0 1.46716,0.133378 1.81394,0.133378 0.69357,0 0.96033,-0.346784 0.96033,-0.826947 0,-0.373459 -0.21341,-0.933649 -0.74692,-0.933649 l -2.77427,0.05335 c -0.26676,0 -0.6669,-0.240081 -1.09371,-0.453487 -0.40013,-0.213405 -0.987,-0.453486 -2.40081,-0.453486 z" /><path
       id="path1726"
       style="font-size:26.6757px;stroke-width:1.00034"
       d="m -172.26944,-17.509557 c 0.16006,0.02668 0.45349,0.213405 0.45349,0.480162 0,0.18673 -0.0534,0.56019 -0.26676,1.093704 l -1.92065,4.854977 c -0.08,0.213406 -0.18673,0.266757 -0.26676,0 l -2.1874,-5.735275 c -0.10671,-0.266757 0,-0.613541 0.13338,-0.640217 0.58686,-0.18673 0.90697,-0.400136 0.90697,-0.666893 0,-0.266757 -0.24008,-0.533514 -0.66689,-0.533514 -0.40014,0 -1.52052,0.160055 -1.92065,0.160055 -0.40014,0 -1.30711,-0.160055 -1.70725,-0.160055 -0.42681,0 -0.64022,0.266757 -0.64022,0.533514 0,0.266757 0.48017,0.480163 0.8803,0.613542 0.40014,0.133378 0.7736,0.987 1.04035,1.680569 l 2.96101,7.7626281 c 0.16005,0.4534868 0.40013,1.0670279 0.66689,1.0670279 0.48016,0 1.22708,-2.5341914 1.68057,-3.654571 l 2.10738,-5.33514 c 0.37346,-0.933649 0.85362,-1.413812 1.14705,-1.520514 0.40014,-0.133379 0.90698,-0.346785 0.90698,-0.613542 0,-0.266757 -0.21341,-0.533514 -0.64022,-0.533514 -0.40013,0 -0.8803,0.160055 -1.28043,0.160055 -0.40014,0 -1.06703,-0.160055 -1.46717,-0.160055 -0.42681,0 -0.66689,0.266757 -0.66689,0.533514 0,0.266757 0.34679,0.533514 0.74692,0.613542 z" /><path
       id="path1728"
       style="font-size:26.6757px;stroke-width:1.00034"
       d="m -166.00069,-13.694932 c 0,-1.920651 1.01368,-4.028031 2.93433,-4.028031 2.32078,0 3.54787,2.560867 3.54787,4.935004 0,1.974002 -0.82695,4.374815 -2.80095,4.374815 -2.48084,0 -3.68125,-2.774273 -3.68125,-5.281788 z m 3.12106,-5.14841 c -2.88098,0 -5.78863,2.534191 -5.78863,5.735275 0,3.1744081 2.40081,5.9486808 5.65525,5.9486808 3.41449,0 6.13541,-2.9076508 6.13541,-6.3488168 0,-3.094381 -2.90765,-5.335139 -6.00203,-5.335139 z" /><path
       id="path1730"
       style="font-size:26.6757px;stroke-width:1.00034"
       d="m -153.67652,-22.497913 v 12.244146 c 0,0.6668922 -0.29344,1.4938389 -1.01368,1.7072445 -0.72024,0.2134056 -1.17373,0.4268112 -1.17373,0.6935681 0,0.266757 0.24008,0.533514 0.93365,0.533514 0.58686,0 1.84062,-0.1600542 2.37414,-0.1600542 0.42681,0 1.76059,0.1600542 2.34746,0.1600542 0.69357,0 0.90697,-0.266757 0.90697,-0.533514 0,-0.2667569 -0.42681,-0.4801625 -1.14705,-0.6935681 -0.72025,-0.2134056 -1.01368,-1.0403523 -1.01368,-1.7072445 v -14.564932 c 0,-0.506838 0,-0.720244 -0.32011,-0.720244 -0.26676,0 -1.70724,0.453487 -2.77427,0.640217 -0.37346,0.05335 -0.7736,0.266757 -0.7736,0.56019 0,0.293432 0.32011,0.506838 0.61354,0.613541 0.64022,0.240081 1.04036,0.773595 1.04036,1.227082 z" /><path
       id="path1732"
       style="font-size:26.6757px;stroke-width:1.00034"
       d="m -143.93992,-7.1593862 c 1.60054,0 3.04103,-1.3071092 3.04103,-1.9206503 0,-0.266757 -0.13338,-0.3734598 -0.40014,-0.3734598 -0.26675,0 -0.93365,0.4801626 -1.92065,0.4801626 -0.93365,0 -1.38713,-0.5868654 -1.38713,-2.4541643 v -4.988356 c 0,-0.37346 0.1067,-0.506838 0.42681,-0.506838 h 2.64089 c 0.37346,0 0.64022,-0.693568 0.64022,-0.960325 0,-0.266757 -0.1067,-0.613541 -0.53352,-0.613541 h -2.58754 c -0.34678,0 -0.58686,-0.133379 -0.58686,-0.400136 v -0.746919 c 0,-0.453487 -0.0533,-0.666893 -0.37346,-0.666893 -0.34679,0 -1.36046,1.013677 -1.73392,1.333785 -0.6669,0.56019 -1.78728,1.307109 -1.78728,1.680569 0,0.266757 0.61355,0.37346 0.85363,0.37346 0.987,0 0.82694,0.133378 0.82694,0.37346 v 6.348816 c 0,2.2674345 1.30711,3.0410298 2.88098,3.0410298 z" /><path
       id="path1734"
       style="font-size:26.6757px;stroke-width:1.00034"
       d="m -137.27102,-10.867308 c 0,-0.453487 0.40014,-0.987001 1.33379,-1.280434 l 1.28043,-0.506838 c 0.29343,-0.106703 0.61354,-0.106703 0.61354,0.18673 v 2.5075154 c 0,0.6402168 -0.90697,1.0136766 -1.65389,1.0136766 -0.96033,0 -1.57387,-0.6135411 -1.57387,-1.92065 z m 1.974,-7.976034 c -0.987,0 -2.00068,0.613541 -2.93433,1.253757 -0.56018,0.400136 -1.01367,1.200407 -1.01367,1.813948 0,0.213406 0.0534,0.906974 0.2134,0.906974 0.26676,0 1.33379,-0.453487 1.49384,-0.56019 0.24008,-0.160054 0.26676,-0.37346 0.26676,-1.040352 0,-0.56019 0.66689,-0.773595 1.22708,-0.773595 0.93365,0 1.94733,0.693568 1.94733,1.627217 v 1.307109 c 0,0.266757 -0.13338,0.400136 -0.61354,0.613542 l -3.49452,1.467163 c -0.80027,0.346784 -1.44049,1.173731 -1.44049,2.5075157 0,1.333785 1.33379,2.5608671 2.6409,2.5608671 1.04035,0 2.10738,-0.533514 2.72092,-1.147055 0.18673,-0.1867299 0.2134,-0.2134056 0.40013,0.053351 0.34679,0.4801625 0.96033,1.0937036 1.84063,1.0937036 1.06703,0 2.40081,-0.6935682 2.40081,-1.6538933 0,-0.2934327 -0.08,-0.5868654 -0.24008,-0.5868654 -0.18673,0 -0.58687,0.3467841 -0.96033,0.3467841 -0.45348,0 -0.96032,-0.3201084 -0.96032,-0.7469196 v -6.3221406 c 0,-1.413812 -1.22708,-2.720921 -3.49452,-2.720921 z" /><path
       id="path1736"
       style="font-size:26.6757px;stroke-width:1.00034"
       d="m -127.16098,-3.8782752 c 0,-0.5868654 0.32011,-1.2270821 0.987,-1.8406232 0.58686,-0.533514 1.0937,-0.7735953 1.78727,-0.7735953 2.69425,0 4.08138,0.4801626 4.08138,2.214083 0,1.6805691 -1.57386,2.66757 -3.52119,2.66757 -1.57387,0 -3.33446,-0.6135411 -3.33446,-2.2674345 z m 1.01367,-11.2037938 c 0,-1.227082 0.56019,-2.640894 1.78728,-2.640894 1.46716,0 2.53419,1.307109 2.53419,2.720921 0,1.573867 -0.64022,3.281111 -2.13406,3.281111 -1.54719,0 -2.18741,-1.813947 -2.18741,-3.361138 z m 2.18741,-3.761273 c -2.40081,0 -4.53487,1.787271 -4.53487,4.188084 0,1.573867 0.96033,2.827624 2.16073,3.521193 0.18673,0.106702 0.08,0.240081 0,0.346784 -0.42681,0.640217 -1.38713,1.4404875 -1.78727,1.7872716 -0.2134,0.1867299 -0.37346,0.3734598 -0.37346,0.6135411 0,0.880298 0.64022,1.2270821 1.52052,1.6272176 0.26675,0.1333785 0.29343,0.266757 0.16005,0.3467841 -1.28043,0.800271 -2.56087,2.0273531 -2.56087,3.3077867 0,2.0807046 1.89398,2.98767832 4.34814,2.98767832 3.46784,0 6.77563,-2.21408302 6.77563,-5.68192392 0,-1.4671635 -1.52051,-2.4541643 -2.69424,-2.5075157 l -3.20109,-0.1067028 c -1.28043,-0.026676 -2.00068,-0.3201084 -2.00068,-0.6935682 0,-0.4268112 0.50684,-1.0937038 0.90698,-1.4404878 0.13338,-0.106703 0.32011,-0.133378 0.34678,-0.133378 0.13338,0 0.37346,0.08003 0.66689,0.08003 2.40082,0 4.48152,-2.347462 4.48152,-4.294788 0,-0.18673 -0.13338,-0.960325 -0.2134,-1.173731 -0.0533,-0.160054 0.0533,-0.293432 0.24008,-0.293432 0.24008,0 1.46716,0.133378 1.81395,0.133378 0.69356,0 0.96032,-0.346784 0.96032,-0.826947 0,-0.373459 -0.2134,-0.933649 -0.74692,-0.933649 l -2.77427,0.05335 c -0.26676,0 -0.66689,-0.240081 -1.09371,-0.453487 -0.40013,-0.213405 -0.987,-0.453486 -2.40081,-0.453486 z" /><path
       id="path1738"
       style="font-size:26.6757px;stroke-width:1.00034"
       d="m -113.23631,-15.775637 c 0,-0.533514 1.09371,-1.840623 2.69425,-1.840623 0.77359,0 1.57386,0.533514 1.57386,1.307109 0,0.37346 -0.13338,0.826947 -0.40013,0.826947 h -3.52119 c -0.32011,0 -0.34679,-0.106703 -0.34679,-0.293433 z m 6.5889,-0.293433 c 0,-1.36046 -1.70725,-2.774272 -3.52119,-2.774272 -3.25444,0 -5.76195,2.507515 -5.76195,5.788626 0,3.014354 1.65389,5.8953298 4.61489,5.8953298 2.61422,0 4.16141,-1.2804335 4.16141,-2.0540288 0,-0.266757 -0.13338,-0.3734598 -0.40013,-0.3734598 -0.26676,0 -1.44049,0.6135411 -2.77428,0.6135411 -2.10738,0 -3.36114,-2.1874073 -3.36114,-4.2147603 0,-0.453487 0,-0.506838 0.10671,-0.800271 0.08,-0.213406 0.13338,-0.266757 0.50684,-0.266757 h 5.62857 c 0.69357,0 0.80027,-1.093704 0.80027,-1.813948 z" /></g></g></svg>
