<svg width="473.533" height="366.413" viewBox="0 0 355.15 274.81" class="displayed_equation" xmlns="http://www.w3.org/2000/svg">
  <path d="M 471.445313 512.63125 L 3427.578125 512.63125 M 471.445313 597.084375 L 3427.578125 597.084375 M 471.445313 681.5375 L 3427.578125 681.5375 M 471.445313 765.990625 L 3427.578125 765.990625 M 471.445313 850.44375 L 3427.578125 850.44375 M 471.445313 934.935937 L 3427.578125 934.935937 M 471.445313 1019.389062 L 3427.578125 1019.389062 M 471.445313 1103.842187 L 3427.578125 1103.842187 M 471.445313 1188.295312 L 3427.578125 1188.295312 M 471.445313 1272.748437 L 3427.578125 1272.748437 M 471.445313 1357.201562 L 3427.578125 1357.201562 M 471.445313 1441.69375 L 3427.578125 1441.69375 M 471.445313 1526.146875 L 3427.578125 1526.146875 M 471.445313 1610.6 L 3427.578125 1610.6 M 471.445313 1695.053125 L 3427.578125 1695.053125 M 471.445313 1779.50625 L 3427.578125 1779.50625 M 471.445313 1863.959375 L 3427.578125 1863.959375 M 471.445313 1948.4125 L 3427.578125 1948.4125 M 471.445313 2032.904687 L 3427.578125 2032.904687 M 471.445313 2117.357812 L 3427.578125 2117.357812 M 471.445313 2201.810937 L 3427.578125 2201.810937 M 471.445313 2286.264062 L 3427.578125 2286.264062 M 471.445313 2370.717187 L 3427.578125 2370.717187 M 471.445313 2455.209375 L 3427.578125 2455.209375 M 471.445313 2539.6625 L 3427.578125 2539.6625 M 471.445313 2624.115625 L 3427.578125 2624.115625 M 471.445313 512.63125 L 471.445313 2624.154687 M 555.898438 512.63125 L 555.898438 2624.154687 M 640.351563 512.63125 L 640.351563 2624.154687 M 724.804688 512.63125 L 724.804688 2624.154687 M 809.257813 512.63125 L 809.257813 2624.154687 M 893.75 512.63125 L 893.75 2624.154687 M 978.203125 512.63125 L 978.203125 2624.154687 M 1062.65625 512.63125 L 1062.65625 2624.154687 M 1147.109375 512.63125 L 1147.109375 2624.154687 M 1231.5625 512.63125 L 1231.5625 2624.154687 M 1316.054688 512.63125 L 1316.054688 2624.154687 M 1400.507813 512.63125 L 1400.507813 2624.154687 M 1484.960938 512.63125 L 1484.960938 2624.154687 M 1569.414063 512.63125 L 1569.414063 2624.154687 M 1653.867188 512.63125 L 1653.867188 2624.154687 M 1738.320313 512.63125 L 1738.320313 2624.154687 M 1822.773438 512.63125 L 1822.773438 2624.154687 M 1907.265625 512.63125 L 1907.265625 2624.154687 M 1991.71875 512.63125 L 1991.71875 2624.154687 M 2076.171875 512.63125 L 2076.171875 2624.154687 M 2160.625 512.63125 L 2160.625 2624.154687 M 2245.078125 512.63125 L 2245.078125 2624.154687 M 2329.53125 512.63125 L 2329.53125 2624.154687 M 2414.023438 512.63125 L 2414.023438 2624.154687 M 2498.476563 512.63125 L 2498.476563 2624.154687 M 2582.929688 512.63125 L 2582.929688 2624.154687 M 2667.382813 512.63125 L 2667.382813 2624.154687 M 2751.835938 512.63125 L 2751.835938 2624.154687 M 2836.289063 512.63125 L 2836.289063 2624.154687 M 2920.78125 512.63125 L 2920.78125 2624.154687 M 3005.234375 512.63125 L 3005.234375 2624.154687 M 3089.6875 512.63125 L 3089.6875 2624.154687 M 3174.140625 512.63125 L 3174.140625 2624.154687 M 3258.59375 512.63125 L 3258.59375 2624.154687 M 3343.046875 512.63125 L 3343.046875 2624.154687 M 3427.539063 512.63125 L 3427.539063 2624.154687" transform="matrix(.1 0 0 -.1 0 274.81)" fill="none" stroke-width="3.985" stroke-linecap="round" stroke-linejoin="round" stroke="#dbdbdc" stroke-miterlimit="10" />
  <path d="M 471.445313 512.63125 L 3427.578125 512.63125 M 471.445313 934.935937 L 3427.578125 934.935937 M 471.445313 1357.240625 L 3427.578125 1357.240625 M 471.445313 1779.545312 L 3427.578125 1779.545312 M 471.445313 2201.85 L 3427.578125 2201.85 M 471.445313 2623.998437 L 3427.578125 2623.998437 M 471.445313 512.63125 L 471.445313 2624.154687 M 893.75 512.63125 L 893.75 2624.154687 M 1316.054688 512.63125 L 1316.054688 2624.154687 M 1738.359375 512.63125 L 1738.359375 2624.154687 M 2160.664063 512.63125 L 2160.664063 2624.154687 M 2582.96875 512.63125 L 2582.96875 2624.154687 M 3005.273438 512.63125 L 3005.273438 2624.154687 M 3427.421875 512.63125 L 3427.421875 2624.154687" transform="matrix(.1 0 0 -.1 0 274.81)" fill="none" stroke-width="3.985" stroke-linecap="round" stroke-linejoin="round" stroke="#a5a5a6" stroke-miterlimit="10" />
  <path d="M 893.75 494.076562 L 893.75 531.185937" transform="matrix(.1 0 0 -.1 0 274.81)" fill="none" stroke-width="7.97" stroke-linecap="round" stroke-linejoin="round" stroke="#000" stroke-miterlimit="10" />
  <path d="M 91.351563 237.609375 L 91.351563 237.296875 C 90.328125 237.296875 89.914063 237.097656 89.914063 236.550781 L 89.914063 230.480469 L 89.589844 230.480469 L 87.425781 231.09375 L 87.425781 231.464844 C 87.773438 231.351563 88.339844 231.285156 88.5625 231.285156 C 88.84375 231.285156 88.929688 231.441406 88.929688 231.832031 L 88.929688 236.550781 C 88.929688 237.109375 88.539063 237.296875 87.492188 237.296875 L 87.492188 237.609375 L 91.351563 237.609375" />
  <path d="M 1316.054688 494.076562 L 1316.054688 531.185937" transform="matrix(.1 0 0 -.1 0 274.81)" fill="none" stroke-width="7.97" stroke-linecap="round" stroke-linejoin="round" stroke="#000" stroke-miterlimit="10" />
  <path d="M 133.976563 235.925781 L 133.652344 235.925781 C 133.398438 236.59375 133.253906 236.828125 132.660156 236.828125 L 131.109375 236.828125 L 130.328125 236.863281 L 130.328125 236.808594 L 131.800781 235.410156 C 132.984375 234.21875 133.617188 233.449219 133.617188 232.457031 C 133.617188 231.285156 132.738281 230.527344 131.476563 230.527344 C 130.394531 230.527344 129.636719 231.152344 129.289063 232.230469 L 129.558594 232.34375 C 129.972656 231.507813 130.464844 231.25 131.1875 231.25 C 132.046875 231.25 132.582031 231.785156 132.582031 232.621094 C 132.582031 233.792969 132.023438 234.496094 130.921875 235.636719 L 129.222656 237.332031 L 129.222656 237.710938 L 133.617188 237.710938 L 133.976563 235.925781" />
  <path d="M 1738.359375 494.076562 L 1738.359375 531.185937" transform="matrix(.1 0 0 -.1 0 274.81)" fill="none" stroke-width="7.97" stroke-linecap="round" stroke-linejoin="round" stroke="#000" stroke-miterlimit="10" />
  <path d="M 172.058594 232.152344 C 172.4375 231.5625 172.851563 231.25 173.519531 231.25 C 174.214844 231.25 174.660156 231.628906 174.660156 232.289063 C 174.660156 233.191406 173.867188 233.804688 173.109375 233.804688 L 172.898438 233.804688 L 172.898438 234.230469 L 173.117188 234.230469 C 174.191406 234.230469 175.140625 234.886719 175.140625 235.878906 C 175.140625 236.972656 174.457031 237.296875 173.753906 237.296875 C 173.488281 237.296875 173.332031 237.253906 172.851563 237.007813 C 172.460938 236.808594 172.371094 236.75 172.195313 236.75 C 171.902344 236.75 171.757813 237.007813 171.757813 237.242188 C 171.757813 237.53125 172.003906 237.855469 173.007813 237.855469 C 174.636719 237.855469 176.054688 237.074219 176.054688 235.546875 C 176.054688 234.550781 175.304688 233.960938 174.414063 233.683594 L 174.414063 233.648438 C 175.117188 233.203125 175.617188 232.789063 175.617188 232.019531 C 175.617188 231.171875 174.960938 230.527344 173.820313 230.527344 C 172.90625 230.527344 172.214844 231.039063 171.804688 232.007813 L 172.058594 232.152344" />
  <path d="M 2160.625 494.076562 L 2160.625 531.185937" transform="matrix(.1 0 0 -.1 0 274.81)" fill="none" stroke-width="7.97" stroke-linecap="round" stroke-linejoin="round" stroke="#000" stroke-miterlimit="10" />
  <path d="M 218.664063 235.949219 L 218.664063 235.175781 L 217.527344 235.175781 L 217.527344 230.515625 L 216.847656 230.515625 L 213.445313 235.246094 L 213.445313 235.949219 L 216.535156 235.949219 L 216.535156 237.710938 L 217.527344 237.710938 L 217.527344 235.949219 Z M 216.535156 235.175781 L 214.058594 235.175781 L 214.058594 235.132813 L 216.492188 231.730469 L 216.535156 231.730469 L 216.535156 235.175781" />
  <path d="M 2582.929688 494.076562 L 2582.929688 531.185937" transform="matrix(.1 0 0 -.1 0 274.81)" fill="none" stroke-width="7.97" stroke-linecap="round" stroke-linejoin="round" stroke="#000" stroke-miterlimit="10" />
  <path d="M 260.152344 231.386719 L 260.332031 230.480469 L 257.273438 230.480469 L 256.582031 233.394531 L 256.714844 233.558594 C 256.871094 233.558594 256.929688 233.558594 257.21875 233.582031 C 258.757813 233.660156 259.628906 234.117188 259.628906 235.511719 C 259.628906 236.671875 258.925781 237.097656 258.132813 237.097656 C 257.417969 237.097656 257.050781 236.550781 256.605469 236.550781 C 256.324219 236.550781 256.15625 236.773438 256.15625 237.03125 C 256.15625 237.441406 256.582031 237.65625 257.441406 237.65625 C 259.214844 237.65625 260.441406 236.785156 260.441406 235.066406 C 260.441406 233.316406 259.070313 232.792969 257.753906 232.691406 L 257.230469 232.65625 L 257.53125 231.386719 L 260.152344 231.386719" />
  <path d="M 3005.234375 494.076562 L 3005.234375 531.185937" transform="matrix(.1 0 0 -.1 0 274.81)" fill="none" stroke-width="7.97" stroke-linecap="round" stroke-linejoin="round" stroke="#000" stroke-miterlimit="10" />
  <path d="M 302.328125 230.503906 C 299.929688 230.605469 298.203125 232.152344 298.203125 234.84375 C 298.203125 236.484375 298.925781 237.84375 300.589844 237.84375 C 301.996094 237.84375 302.796875 236.964844 302.796875 235.445313 C 302.796875 233.984375 302.007813 233.101563 300.789063 233.101563 C 300.210938 233.101563 299.796875 233.347656 299.339844 233.792969 L 299.261719 233.785156 C 299.539063 232.152344 300.789063 231.0625 302.351563 230.828125 Z M 301.828125 235.535156 C 301.828125 236.949219 301.382813 237.453125 300.632813 237.453125 C 299.664063 237.453125 299.207031 236.460938 299.207031 235.078125 C 299.207031 234.105469 299.808594 233.75 300.457031 233.75 C 301.382813 233.75 301.828125 234.53125 301.828125 235.535156" />
  <path d="M 452.890625 934.935937 L 490 934.935937" transform="matrix(.1 0 0 -.1 0 274.81)" fill="none" stroke-width="7.97" stroke-linecap="round" stroke-linejoin="round" stroke="#000" stroke-miterlimit="10" />
  <path d="M 39.453125 184.910156 L 39.453125 184.597656 C 38.425781 184.597656 38.015625 184.398438 38.015625 183.851563 L 38.015625 177.78125 L 37.691406 177.78125 L 35.523438 178.394531 L 35.523438 178.761719 C 35.871094 178.652344 36.441406 178.585938 36.664063 178.585938 C 36.941406 178.585938 37.03125 178.742188 37.03125 179.128906 L 37.03125 183.851563 C 37.03125 184.410156 36.640625 184.597656 35.59375 184.597656 L 35.59375 184.910156 L 39.453125 184.910156" />
  <path d="M 452.890625 1357.201562 L 490 1357.201562" transform="matrix(.1 0 0 -.1 0 274.81)" fill="none" stroke-width="7.97" stroke-linecap="round" stroke-linejoin="round" stroke="#000" stroke-miterlimit="10" />
  <path d="M 39.875 140.925781 L 39.554688 140.925781 C 39.296875 141.59375 39.152344 141.828125 38.558594 141.828125 L 37.007813 141.828125 L 36.226563 141.863281 L 36.226563 141.808594 L 37.703125 140.410156 C 38.882813 139.21875 39.519531 138.449219 39.519531 137.453125 C 39.519531 136.28125 38.636719 135.527344 37.378906 135.527344 C 36.296875 135.527344 35.539063 136.152344 35.191406 137.230469 L 35.460938 137.34375 C 35.871094 136.507813 36.363281 136.25 37.085938 136.25 C 37.945313 136.25 38.480469 136.785156 38.480469 137.621094 C 38.480469 138.792969 37.921875 139.496094 36.820313 140.636719 L 35.125 142.328125 L 35.125 142.710938 L 39.519531 142.710938 L 39.875 140.925781" />
  <path d="M 452.890625 1779.50625 L 490 1779.50625" transform="matrix(.1 0 0 -.1 0 274.81)" fill="none" stroke-width="7.97" stroke-linecap="round" stroke-linejoin="round" stroke="#000" stroke-miterlimit="10" />
  <path d="M 35.660156 94.855469 C 36.039063 94.261719 36.453125 93.949219 37.121094 93.949219 C 37.8125 93.949219 38.257813 94.328125 38.257813 94.988281 C 38.257813 95.890625 37.46875 96.503906 36.707031 96.503906 L 36.496094 96.503906 L 36.496094 96.929688 L 36.71875 96.929688 C 37.789063 96.929688 38.738281 97.589844 38.738281 98.578125 C 38.738281 99.675781 38.058594 99.996094 37.355469 99.996094 C 37.085938 99.996094 36.929688 99.953125 36.453125 99.707031 C 36.0625 99.507813 35.972656 99.449219 35.792969 99.449219 C 35.503906 99.449219 35.359375 99.707031 35.359375 99.941406 C 35.359375 100.230469 35.601563 100.554688 36.609375 100.554688 C 38.234375 100.554688 39.652344 99.773438 39.652344 98.246094 C 39.652344 97.253906 38.90625 96.660156 38.015625 96.382813 L 38.015625 96.347656 C 38.714844 95.902344 39.21875 95.488281 39.21875 94.722656 C 39.21875 93.871094 38.558594 93.226563 37.421875 93.226563 C 36.507813 93.226563 35.816406 93.738281 35.402344 94.707031 L 35.660156 94.855469" />
  <path d="M 452.890625 2201.810937 L 490 2201.810937" transform="matrix(.1 0 0 -.1 0 274.81)" fill="none" stroke-width="7.97" stroke-linecap="round" stroke-linejoin="round" stroke="#000" stroke-miterlimit="10" />
  <path d="M 40.066406 56.445313 L 40.066406 55.675781 L 38.929688 55.675781 L 38.929688 51.015625 L 38.25 51.015625 L 34.84375 55.742188 L 34.84375 56.445313 L 37.9375 56.445313 L 37.9375 58.210938 L 38.929688 58.210938 L 38.929688 56.445313 Z M 37.9375 55.675781 L 35.460938 55.675781 L 35.460938 55.632813 L 37.890625 52.230469 L 37.9375 52.230469 L 37.9375 55.675781" />
  <path d="M 471.445313 512.63125 L 3377.578125 512.63125" transform="matrix(.1 0 0 -.1 0 274.81)" fill="none" stroke-width="7.97" stroke-linecap="round" stroke-linejoin="round" stroke="#000" stroke-miterlimit="10" />
  <path d="M 341.621094 223.546875 L 336.152344 221.484375 L 337.957031 223.546875 L 336.152344 225.613281" />
  <path d="M 3416.210938 512.63125 L 3361.523438 533.25625 L 3379.570313 512.63125 L 3361.523438 491.967187 Z M 3416.210938 512.63125" transform="matrix(.1 0 0 -.1 0 274.81)" fill="none" stroke-width="7.97" stroke-linecap="round" stroke="#000" stroke-miterlimit="10" />
  <path d="M166.320313 250.300781L166.265625 250.757813 167.191406 250.757813 166.429688 254.917969C166.320313 255.511719 166.019531 257.628906 165.382813 257.628906 164.960938 257.628906 165.339844 256.636719 164.667969 256.636719 164.378906 256.636719 164.210938 256.882813 164.210938 257.195313 164.210938 257.585938 164.492188 257.988281 165.195313 257.988281 166.722656 257.988281 167.234375 255.488281 167.425781 254.527344L168.117188 250.757813 169.152344 250.757813 169.230469 250.300781 168.171875 250.300781 168.316406 249.507813C168.507813 248.558594 168.851563 247.902344 169.453125 247.902344 169.679688 247.902344 169.667969 248.203125 169.699219 248.457031 169.734375 248.691406 169.84375 248.882813 170.113281 248.882813 170.390625 248.882813 170.605469 248.714844 170.605469 248.382813 170.605469 247.902344 170.234375 247.578125 169.601563 247.578125 168.59375 247.578125 168.140625 248.089844 167.839844 248.613281 167.570313 249.074219 167.425781 249.675781 167.28125 250.300781L166.320313 250.300781M173.503906 252.566406C173.503906 255.65625 174.820313 257.875 176.640625 259.023438L176.851563 258.734375C175.1875 257.363281 174.441406 255.421875 174.441406 252.566406 174.441406 249.71875 175.1875 247.789063 176.851563 246.417969L176.640625 246.117188C174.820313 247.289063 173.503906 249.484375 173.503906 252.566406M184.117188 255.265625L181.496094 252.632813 184.117188 249.988281 183.59375 249.472656 180.949219 252.097656 178.328125 249.472656 177.789063 250 180.414063 252.632813 177.789063 255.277344 178.316406 255.800781 180.949219 253.167969 183.59375 255.800781 184.117188 255.265625M189.351563 255.511719L189.351563 255.199219C188.328125 255.199219 187.914063 254.996094 187.914063 254.449219L187.914063 248.382813 187.589844 248.382813 185.425781 248.996094 185.425781 249.363281C185.773438 249.25 186.339844 249.183594 186.5625 249.183594 186.84375 249.183594 186.929688 249.339844 186.929688 249.730469L186.929688 254.449219C186.929688 255.007813 186.539063 255.199219 185.492188 255.199219L185.492188 255.511719 189.351563 255.511719M195.421875 251.972656C195.421875 249.675781 194.417969 248.347656 192.976563 248.347656 191.359375 248.347656 190.503906 249.820313 190.503906 251.941406 190.503906 253.914063 191.160156 255.632813 192.957031 255.632813 194.707031 255.632813 195.421875 253.882813 195.421875 251.972656zM194.339844 252.039063C194.339844 254.183594 193.839844 255.230469 192.957031 255.230469 192.0625 255.230469 191.570313 254.160156 191.570313 251.996094 191.570313 249.785156 192.0625 248.726563 192.945313 248.726563 193.859375 248.726563 194.339844 249.777344 194.339844 252.039063M199.066406 251.410156L199.066406 251.128906C198.351563 251.128906 198.132813 251.003906 198.132813 250.605469L198.132813 246.210938 197.796875 246.210938 196.355469 246.609375 196.355469 246.921875C196.558594 246.867188 196.898438 246.8125 197.0625 246.8125 197.28125 246.8125 197.351563 246.929688 197.351563 247.207031L197.351563 250.605469C197.351563 251.003906 197.171875 251.128906 196.425781 251.128906L196.425781 251.410156 199.066406 251.410156M203.886719 250.179688L203.886719 249.539063 203.035156 249.539063 203.035156 246.1875 202.476563 246.1875 199.972656 249.585938 199.972656 250.179688 202.265625 250.179688 202.265625 251.410156 203.035156 251.410156 203.035156 250.179688zM202.265625 249.539063L200.503906 249.539063 200.503906 249.492188 202.21875 247.128906 202.265625 247.128906 202.265625 249.539063M209.710938 249.652344C209.710938 248.785156 209.742188 248.515625 210.804688 248.515625L210.804688 248.179688 207.601563 248.179688 207.601563 248.515625C208.628906 248.515625 208.683594 248.785156 208.683594 249.652344L208.683594 254.050781C208.683594 255.042969 208.605469 255.175781 207.601563 255.175781L207.601563 255.511719 210.804688 255.511719 210.804688 255.175781C209.800781 255.175781 209.710938 255.03125 209.710938 254.050781L209.710938 251.960938 213.367188 251.960938 213.367188 254.050781C213.367188 255.019531 213.28125 255.175781 212.289063 255.175781L212.289063 255.511719 215.476563 255.511719 215.476563 255.175781C214.464844 255.175781 214.382813 255.019531 214.382813 254.050781L214.382813 249.652344C214.382813 248.769531 214.417969 248.515625 215.476563 248.515625L215.476563 248.179688 212.289063 248.179688 212.289063 248.515625C213.3125 248.515625 213.367188 248.785156 213.367188 249.652344L213.367188 251.527344 209.710938 251.527344 209.710938 249.652344M220.640625 253.726563L220.273438 253.726563C220.050781 254.761719 219.816406 255.050781 218.855469 255.050781L217.464844 255.050781 217.464844 255.019531 220.597656 250.558594 220.597656 250.234375 216.480469 250.234375 216.425781 251.871094 216.769531 251.871094C216.871094 251.125 217.046875 250.703125 217.875 250.703125L219.382813 250.703125 219.382813 250.734375 216.246094 255.1875 216.246094 255.511719 220.53125 255.511719 220.640625 253.726563M224.882813 252.566406C224.882813 249.484375 223.578125 247.289063 221.757813 246.117188L221.546875 246.417969C223.207031 247.789063 223.957031 249.71875 223.957031 252.566406 223.957031 255.421875 223.207031 257.363281 221.546875 258.734375L221.757813 259.023438C223.578125 257.875 224.882813 255.65625 224.882813 252.566406" />
  <path d="M 471.445313 512.63125 L 471.445313 2574.154687" transform="matrix(.1 0 0 -.1 0 274.81)" fill="none" stroke-width="7.97" stroke-linecap="round" stroke-linejoin="round" stroke="#000" stroke-miterlimit="10" />
  <path d="M 47.144531 13.53125 L 45.082031 19 L 47.144531 17.195313 L 49.207031 19" />
  <path d="M 471.445313 2612.7875 L 450.820313 2558.1 L 471.445313 2576.146875 L 492.070313 2558.1 Z M 471.445313 2612.7875" transform="matrix(.1 0 0 -.1 0 274.81)" fill="none" stroke-width="7.97" stroke-linecap="round" stroke="#000" stroke-miterlimit="10" />
  <path d="M22.339844 135.625C23.320313 135.625 23.464844 135.714844 23.464844 136.730469L23.800781 136.730469 23.800781 133.519531 23.464844 133.519531C23.464844 134.5 23.273438 134.613281 22.339844 134.613281L20.328125 134.613281 20.328125 134.511719 21.3125 133.527344C22.417969 132.402344 22.875 131.910156 23.242188 131.910156 23.410156 131.910156 23.464844 132.03125 23.464844 132.347656L23.464844 132.570313 23.800781 132.570313 23.800781 129.347656 23.464844 129.347656C23.464844 129.890625 23.332031 130.136719 22.984375 130.503906L19.839844 133.707031 17.574219 131.285156C17.015625 130.683594 16.839844 130.460938 16.804688 129.824219L16.46875 129.824219 16.46875 132.558594 16.804688 132.558594 16.804688 132.378906C16.804688 132.066406 16.917969 131.953125 17.152344 131.953125 17.484375 131.953125 17.789063 132.234375 18.277344 132.746094L20.039063 134.554688 20.039063 134.613281 17.941406 134.613281C17.074219 134.613281 16.804688 134.578125 16.804688 133.519531L16.46875 133.519531 16.46875 136.730469 16.804688 136.730469C16.804688 135.671875 17.074219 135.625 17.941406 135.625L22.339844 135.625M21.726563 122.636719L21.726563 122.996094C23.054688 123.429688 23.320313 123.632813 23.308594 125.359375L23.308594 126.800781 20.242188 126.800781 20.242188 125.492188C20.242188 124.46875 20.363281 124.242188 21.277344 124.242188L21.277344 123.886719 18.691406 123.886719 18.691406 124.242188C19.59375 124.242188 19.804688 124.46875 19.804688 125.492188L19.804688 126.800781 16.972656 126.800781 16.972656 125.160156C16.972656 123.789063 17.183594 123.507813 18.300781 123.339844L18.300781 122.984375 16.46875 123.050781 16.46875 128.90625 16.804688 128.90625C16.804688 128.003906 16.984375 127.824219 17.832031 127.824219L22.484375 127.824219C23.351563 127.824219 23.464844 128.003906 23.464844 128.90625L23.800781 128.90625 23.800781 122.949219 21.726563 122.636719M20.84375 119.128906C23.296875 119.128906 25.046875 117.957031 25.976563 116.164063L25.664063 115.984375C24.59375 117.613281 23.085938 118.214844 20.84375 118.214844 18.625 118.214844 17.128906 117.613281 16.046875 115.984375L15.757813 116.164063C16.671875 117.957031 18.410156 119.128906 20.84375 119.128906M22.203125 110.980469C22.671875 111.335938 23.074219 111.683594 23.074219 112.585938 23.074219 113.480469 22.371094 114.328125 20.832031 114.328125L20.832031 110.800781C19.269531 110.855469 18.390625 111.660156 18.390625 112.878906 18.390625 114.183594 19.28125 115.230469 21.144531 115.230469 22.941406 115.230469 23.910156 114.191406 23.910156 112.855469 23.910156 111.703125 23.210938 111.167969 22.359375 110.769531zM20.421875 114.339844C19.382813 114.25 18.835938 113.800781 18.835938 113.042969 18.835938 112.253906 19.59375 111.882813 20.421875 111.851563L20.421875 114.339844M21.277344 105.867188L22.394531 106.261719 22.394531 106.316406 21.222656 106.75 17.910156 108.101563C17.585938 108.234375 17.375 108.289063 17.230469 108.289063 16.816406 108.289063 16.804688 107.820313 16.804688 107.53125L16.46875 107.53125 16.46875 110.519531 16.804688 110.519531C16.804688 109.917969 17.074219 109.675781 17.820313 109.351563L23.855469 106.796875 23.855469 106.347656 18.253906 104.050781C16.996094 103.515625 16.804688 103.371094 16.804688 102.746094L16.46875 102.746094 16.46875 105.089844 16.804688 105.089844C16.804688 104.566406 16.882813 104.339844 17.183594 104.339844 17.382813 104.339844 17.5625 104.398438 17.730469 104.464844L21.277344 105.867188M20.84375 99.316406C18.410156 99.316406 16.671875 100.488281 15.757813 102.285156L16.046875 102.464844C17.128906 100.835938 18.625 100.234375 20.84375 100.234375 23.085938 100.234375 24.59375 100.835938 25.664063 102.464844L25.976563 102.285156C25.046875 100.488281 23.296875 99.316406 20.84375 99.316406M42.722656 231.375C42.722656 229.074219 41.71875 227.746094 40.277344 227.746094 38.660156 227.746094 37.800781 229.222656 37.800781 231.339844 37.800781 233.316406 38.460938 235.035156 40.257813 235.035156 42.007813 235.035156 42.722656 233.28125 42.722656 231.375zM41.640625 231.441406C41.640625 233.582031 41.136719 234.628906 40.257813 234.628906 39.363281 234.628906 38.871094 233.558594 38.871094 231.394531 38.871094 229.1875 39.363281 228.128906 40.242188 228.128906 41.160156 228.128906 41.640625 229.175781 41.640625 231.441406" />
  <path d="M 471.445313 512.63125 L 1738.359375 512.63125 L 3005.273438 1779.545312" transform="matrix(.1 0 0 -.1 0 274.81)" fill="none" stroke-width="11.955" stroke-linecap="round" stroke-linejoin="round" stroke="#e14b3b" stroke-miterlimit="10" />
</svg>